solid OpenSCAD_Model
  facet normal 0.608759 0.793355 -0
    outer loop
      vertex 1.76767 2.10662 5
      vertex 1.57733 2.25267 8
      vertex 1.76767 2.10662 8
    endloop
  endfacet
  facet normal 0.608759 0.793355 0
    outer loop
      vertex 1.57733 2.25267 8
      vertex 1.76767 2.10662 5
      vertex 1.57733 2.25267 5
    endloop
  endfacet
  facet normal 0.999048 -0.0436199 0
    outer loop
      vertex 2.73954 -0.239677 8
      vertex 2.75 0 5
      vertex 2.75 0 8
    endloop
  endfacet
  facet normal 0.999048 -0.0436199 0
    outer loop
      vertex 2.75 0 5
      vertex 2.73954 -0.239677 8
      vertex 2.73954 -0.239677 5
    endloop
  endfacet
  facet normal -0.382683 0.92388 0
    outer loop
      vertex -0.940555 2.58415 5
      vertex -1.1622 2.49235 8
      vertex -0.940555 2.58415 8
    endloop
  endfacet
  facet normal -0.382683 0.92388 0
    outer loop
      vertex -1.1622 2.49235 8
      vertex -0.940555 2.58415 5
      vertex -1.1622 2.49235 5
    endloop
  endfacet
  facet normal -0.88701 0.461749 0
    outer loop
      vertex -2.49235 1.1622 5
      vertex -2.38157 1.375 8
      vertex -2.38157 1.375 5
    endloop
  endfacet
  facet normal -0.88701 0.461749 0
    outer loop
      vertex -2.38157 1.375 8
      vertex -2.49235 1.1622 5
      vertex -2.49235 1.1622 8
    endloop
  endfacet
  facet normal -0.461749 -0.88701 0
    outer loop
      vertex -1.375 -2.38157 5
      vertex -1.1622 -2.49235 8
      vertex -1.375 -2.38157 8
    endloop
  endfacet
  facet normal -0.461749 -0.88701 -0
    outer loop
      vertex -1.1622 -2.49235 8
      vertex -1.375 -2.38157 5
      vertex -1.1622 -2.49235 5
    endloop
  endfacet
  facet normal 0.92388 0.382683 0
    outer loop
      vertex 2.58415 0.940555 8
      vertex 2.49235 1.1622 5
      vertex 2.49235 1.1622 8
    endloop
  endfacet
  facet normal 0.92388 0.382683 0
    outer loop
      vertex 2.49235 1.1622 5
      vertex 2.58415 0.940555 8
      vertex 2.58415 0.940555 5
    endloop
  endfacet
  facet normal 0.88701 0.461751 0
    outer loop
      vertex 2.49235 1.1622 8
      vertex 2.38157 1.375 5
      vertex 2.38157 1.375 8
    endloop
  endfacet
  facet normal 0.88701 0.461751 0
    outer loop
      vertex 2.38157 1.375 5
      vertex 2.49235 1.1622 8
      vertex 2.49235 1.1622 5
    endloop
  endfacet
  facet normal 0.382683 0.92388 -0
    outer loop
      vertex 1.1622 2.49235 5
      vertex 0.940555 2.58415 8
      vertex 1.1622 2.49235 8
    endloop
  endfacet
  facet normal 0.382683 0.92388 0
    outer loop
      vertex 0.940555 2.58415 8
      vertex 1.1622 2.49235 5
      vertex 0.940555 2.58415 5
    endloop
  endfacet
  facet normal -0.737275 0.675592 0
    outer loop
      vertex -2.10662 1.76767 5
      vertex -1.94454 1.94454 8
      vertex -1.94454 1.94454 5
    endloop
  endfacet
  facet normal -0.737275 0.675592 0
    outer loop
      vertex -1.94454 1.94454 8
      vertex -2.10662 1.76767 5
      vertex -2.10662 1.76767 8
    endloop
  endfacet
  facet normal -0.216438 0.976296 0
    outer loop
      vertex -0.477532 2.70822 5
      vertex -0.711752 2.6563 8
      vertex -0.477532 2.70822 8
    endloop
  endfacet
  facet normal -0.216438 0.976296 0
    outer loop
      vertex -0.711752 2.6563 8
      vertex -0.477532 2.70822 5
      vertex -0.711752 2.6563 5
    endloop
  endfacet
  facet normal 0.953716 -0.300707 0
    outer loop
      vertex 2.58415 -0.940555 8
      vertex 2.6563 -0.711752 5
      vertex 2.6563 -0.711752 8
    endloop
  endfacet
  facet normal 0.953716 -0.300707 0
    outer loop
      vertex 2.6563 -0.711752 5
      vertex 2.58415 -0.940555 8
      vertex 2.58415 -0.940555 5
    endloop
  endfacet
  facet normal -0.675592 -0.737275 0
    outer loop
      vertex -1.94454 -1.94454 5
      vertex -1.76767 -2.10662 8
      vertex -1.94454 -1.94454 8
    endloop
  endfacet
  facet normal -0.675592 -0.737275 -0
    outer loop
      vertex -1.76767 -2.10662 8
      vertex -1.94454 -1.94454 5
      vertex -1.76767 -2.10662 5
    endloop
  endfacet
  facet normal 0.976296 0.216438 0
    outer loop
      vertex 2.70822 0.477532 8
      vertex 2.6563 0.711752 5
      vertex 2.6563 0.711752 8
    endloop
  endfacet
  facet normal 0.976296 0.216438 0
    outer loop
      vertex 2.6563 0.711752 5
      vertex 2.70822 0.477532 8
      vertex 2.70822 0.477532 5
    endloop
  endfacet
  facet normal 0.953716 0.300707 0
    outer loop
      vertex 2.6563 0.711752 8
      vertex 2.58415 0.940555 5
      vertex 2.58415 0.940555 8
    endloop
  endfacet
  facet normal 0.953716 0.300707 0
    outer loop
      vertex 2.58415 0.940555 5
      vertex 2.6563 0.711752 8
      vertex 2.6563 0.711752 5
    endloop
  endfacet
  facet normal 0.737275 0.675592 0
    outer loop
      vertex 2.10662 1.76767 8
      vertex 1.94454 1.94454 5
      vertex 1.94454 1.94454 8
    endloop
  endfacet
  facet normal 0.737275 0.675592 0
    outer loop
      vertex 1.94454 1.94454 5
      vertex 2.10662 1.76767 8
      vertex 2.10662 1.76767 5
    endloop
  endfacet
  facet normal 0.793355 0.608759 0
    outer loop
      vertex 2.25267 1.57733 8
      vertex 2.10662 1.76767 5
      vertex 2.10662 1.76767 8
    endloop
  endfacet
  facet normal 0.793355 0.608759 0
    outer loop
      vertex 2.10662 1.76767 5
      vertex 2.25267 1.57733 8
      vertex 2.25267 1.57733 5
    endloop
  endfacet
  facet normal 0.675592 0.737275 -0
    outer loop
      vertex 1.94454 1.94454 5
      vertex 1.76767 2.10662 8
      vertex 1.94454 1.94454 8
    endloop
  endfacet
  facet normal 0.675592 0.737275 0
    outer loop
      vertex 1.76767 2.10662 8
      vertex 1.94454 1.94454 5
      vertex 1.76767 2.10662 5
    endloop
  endfacet
  facet normal 0.5373 0.843391 -0
    outer loop
      vertex 1.57733 2.25267 5
      vertex 1.375 2.38157 8
      vertex 1.57733 2.25267 8
    endloop
  endfacet
  facet normal 0.5373 0.843391 0
    outer loop
      vertex 1.375 2.38157 8
      vertex 1.57733 2.25267 5
      vertex 1.375 2.38157 5
    endloop
  endfacet
  facet normal 0.0436199 0.999048 -0
    outer loop
      vertex 0.239677 2.73954 5
      vertex 0 2.75 8
      vertex 0.239677 2.73954 8
    endloop
  endfacet
  facet normal 0.0436199 0.999048 0
    outer loop
      vertex 0 2.75 8
      vertex 0.239677 2.73954 5
      vertex 0 2.75 5
    endloop
  endfacet
  facet normal 0.461749 0.88701 -0
    outer loop
      vertex 1.375 2.38157 5
      vertex 1.1622 2.49235 8
      vertex 1.375 2.38157 8
    endloop
  endfacet
  facet normal 0.461749 0.88701 0
    outer loop
      vertex 1.1622 2.49235 8
      vertex 1.375 2.38157 5
      vertex 1.1622 2.49235 5
    endloop
  endfacet
  facet normal 0.300707 0.953716 -0
    outer loop
      vertex 0.940555 2.58415 5
      vertex 0.711752 2.6563 8
      vertex 0.940555 2.58415 8
    endloop
  endfacet
  facet normal 0.300707 0.953716 0
    outer loop
      vertex 0.711752 2.6563 8
      vertex 0.940555 2.58415 5
      vertex 0.711752 2.6563 5
    endloop
  endfacet
  facet normal 0.216438 0.976296 -0
    outer loop
      vertex 0.711752 2.6563 5
      vertex 0.477532 2.70822 8
      vertex 0.711752 2.6563 8
    endloop
  endfacet
  facet normal 0.216438 0.976296 0
    outer loop
      vertex 0.477532 2.70822 8
      vertex 0.711752 2.6563 5
      vertex 0.477532 2.70822 5
    endloop
  endfacet
  facet normal -0.999048 0.0436199 0
    outer loop
      vertex -2.75 0 5
      vertex -2.73954 0.239677 8
      vertex -2.73954 0.239677 5
    endloop
  endfacet
  facet normal -0.999048 0.0436199 0
    outer loop
      vertex -2.73954 0.239677 8
      vertex -2.75 0 5
      vertex -2.75 0 8
    endloop
  endfacet
  facet normal -0.991445 0.130529 0
    outer loop
      vertex -2.73954 0.239677 5
      vertex -2.70822 0.477532 8
      vertex -2.70822 0.477532 5
    endloop
  endfacet
  facet normal -0.991445 0.130529 0
    outer loop
      vertex -2.70822 0.477532 8
      vertex -2.73954 0.239677 5
      vertex -2.73954 0.239677 8
    endloop
  endfacet
  facet normal -0.92388 0.382683 0
    outer loop
      vertex -2.58415 0.940555 5
      vertex -2.49235 1.1622 8
      vertex -2.49235 1.1622 5
    endloop
  endfacet
  facet normal -0.92388 0.382683 0
    outer loop
      vertex -2.49235 1.1622 8
      vertex -2.58415 0.940555 5
      vertex -2.58415 0.940555 8
    endloop
  endfacet
  facet normal -0.953716 0.300707 0
    outer loop
      vertex -2.6563 0.711752 5
      vertex -2.58415 0.940555 8
      vertex -2.58415 0.940555 5
    endloop
  endfacet
  facet normal -0.953716 0.300707 0
    outer loop
      vertex -2.58415 0.940555 8
      vertex -2.6563 0.711752 5
      vertex -2.6563 0.711752 8
    endloop
  endfacet
  facet normal -0.843391 0.5373 0
    outer loop
      vertex -2.38157 1.375 5
      vertex -2.25267 1.57733 8
      vertex -2.25267 1.57733 5
    endloop
  endfacet
  facet normal -0.843391 0.5373 0
    outer loop
      vertex -2.25267 1.57733 8
      vertex -2.38157 1.375 5
      vertex -2.38157 1.375 8
    endloop
  endfacet
  facet normal -0.793355 0.608759 0
    outer loop
      vertex -2.25267 1.57733 5
      vertex -2.10662 1.76767 8
      vertex -2.10662 1.76767 5
    endloop
  endfacet
  facet normal -0.793355 0.608759 0
    outer loop
      vertex -2.10662 1.76767 8
      vertex -2.25267 1.57733 5
      vertex -2.25267 1.57733 8
    endloop
  endfacet
  facet normal -0.300707 0.953716 0
    outer loop
      vertex -0.711752 2.6563 5
      vertex -0.940555 2.58415 8
      vertex -0.711752 2.6563 8
    endloop
  endfacet
  facet normal -0.300707 0.953716 0
    outer loop
      vertex -0.940555 2.58415 8
      vertex -0.711752 2.6563 5
      vertex -0.940555 2.58415 5
    endloop
  endfacet
  facet normal -0.0436199 0.999048 0
    outer loop
      vertex 0 2.75 5
      vertex -0.239677 2.73954 8
      vertex 0 2.75 8
    endloop
  endfacet
  facet normal -0.0436199 0.999048 0
    outer loop
      vertex -0.239677 2.73954 8
      vertex 0 2.75 5
      vertex -0.239677 2.73954 5
    endloop
  endfacet
  facet normal -0.537299 0.843392 0
    outer loop
      vertex -1.375 2.38157 5
      vertex -1.57733 2.25267 8
      vertex -1.375 2.38157 8
    endloop
  endfacet
  facet normal -0.537299 0.843392 0
    outer loop
      vertex -1.57733 2.25267 8
      vertex -1.375 2.38157 5
      vertex -1.57733 2.25267 5
    endloop
  endfacet
  facet normal -0.608759 0.793355 0
    outer loop
      vertex -1.57733 2.25267 5
      vertex -1.76767 2.10662 8
      vertex -1.57733 2.25267 8
    endloop
  endfacet
  facet normal -0.608759 0.793355 0
    outer loop
      vertex -1.76767 2.10662 8
      vertex -1.57733 2.25267 5
      vertex -1.76767 2.10662 5
    endloop
  endfacet
  facet normal -0.461751 0.88701 0
    outer loop
      vertex -1.1622 2.49235 5
      vertex -1.375 2.38157 8
      vertex -1.1622 2.49235 8
    endloop
  endfacet
  facet normal -0.461751 0.88701 0
    outer loop
      vertex -1.375 2.38157 8
      vertex -1.1622 2.49235 5
      vertex -1.375 2.38157 5
    endloop
  endfacet
  facet normal -0.675592 0.737275 0
    outer loop
      vertex -1.76767 2.10662 5
      vertex -1.94454 1.94454 8
      vertex -1.76767 2.10662 8
    endloop
  endfacet
  facet normal -0.675592 0.737275 0
    outer loop
      vertex -1.94454 1.94454 8
      vertex -1.76767 2.10662 5
      vertex -1.94454 1.94454 5
    endloop
  endfacet
  facet normal 0.999048 0.0436199 0
    outer loop
      vertex 2.75 0 8
      vertex 2.73954 0.239677 5
      vertex 2.73954 0.239677 8
    endloop
  endfacet
  facet normal 0.999048 0.0436199 0
    outer loop
      vertex 2.73954 0.239677 5
      vertex 2.75 0 8
      vertex 2.75 0 5
    endloop
  endfacet
  facet normal 0.976296 -0.216438 0
    outer loop
      vertex 2.6563 -0.711752 8
      vertex 2.70822 -0.477532 5
      vertex 2.70822 -0.477532 8
    endloop
  endfacet
  facet normal 0.976296 -0.216438 0
    outer loop
      vertex 2.70822 -0.477532 5
      vertex 2.6563 -0.711752 8
      vertex 2.6563 -0.711752 5
    endloop
  endfacet
  facet normal 0.0436199 -0.999048 0
    outer loop
      vertex 0 -2.75 5
      vertex 0.239677 -2.73954 8
      vertex 0 -2.75 8
    endloop
  endfacet
  facet normal 0.0436199 -0.999048 0
    outer loop
      vertex 0.239677 -2.73954 8
      vertex 0 -2.75 5
      vertex 0.239677 -2.73954 5
    endloop
  endfacet
  facet normal 0.793355 -0.608759 0
    outer loop
      vertex 2.10662 -1.76767 8
      vertex 2.25267 -1.57733 5
      vertex 2.25267 -1.57733 8
    endloop
  endfacet
  facet normal 0.793355 -0.608759 0
    outer loop
      vertex 2.25267 -1.57733 5
      vertex 2.10662 -1.76767 8
      vertex 2.10662 -1.76767 5
    endloop
  endfacet
  facet normal 0.300707 -0.953716 0
    outer loop
      vertex 0.711752 -2.6563 5
      vertex 0.940555 -2.58415 8
      vertex 0.711752 -2.6563 8
    endloop
  endfacet
  facet normal 0.300707 -0.953716 0
    outer loop
      vertex 0.940555 -2.58415 8
      vertex 0.711752 -2.6563 5
      vertex 0.940555 -2.58415 5
    endloop
  endfacet
  facet normal 0.737275 -0.675592 0
    outer loop
      vertex 1.94454 -1.94454 8
      vertex 2.10662 -1.76767 5
      vertex 2.10662 -1.76767 8
    endloop
  endfacet
  facet normal 0.737275 -0.675592 0
    outer loop
      vertex 2.10662 -1.76767 5
      vertex 1.94454 -1.94454 8
      vertex 1.94454 -1.94454 5
    endloop
  endfacet
  facet normal 0.675592 -0.737275 0
    outer loop
      vertex 1.76767 -2.10662 5
      vertex 1.94454 -1.94454 8
      vertex 1.76767 -2.10662 8
    endloop
  endfacet
  facet normal 0.675592 -0.737275 0
    outer loop
      vertex 1.94454 -1.94454 8
      vertex 1.76767 -2.10662 5
      vertex 1.94454 -1.94454 5
    endloop
  endfacet
  facet normal -0.382683 -0.92388 0
    outer loop
      vertex -1.1622 -2.49235 5
      vertex -0.940555 -2.58415 8
      vertex -1.1622 -2.49235 8
    endloop
  endfacet
  facet normal -0.382683 -0.92388 -0
    outer loop
      vertex -0.940555 -2.58415 8
      vertex -1.1622 -2.49235 5
      vertex -0.940555 -2.58415 5
    endloop
  endfacet
  facet normal -0.5373 -0.843391 0
    outer loop
      vertex -1.57733 -2.25267 5
      vertex -1.375 -2.38157 8
      vertex -1.57733 -2.25267 8
    endloop
  endfacet
  facet normal -0.5373 -0.843391 -0
    outer loop
      vertex -1.375 -2.38157 8
      vertex -1.57733 -2.25267 5
      vertex -1.375 -2.38157 5
    endloop
  endfacet
  facet normal -0.976296 -0.216438 0
    outer loop
      vertex -2.6563 -0.711752 5
      vertex -2.70822 -0.477532 8
      vertex -2.70822 -0.477532 5
    endloop
  endfacet
  facet normal -0.976296 -0.216438 0
    outer loop
      vertex -2.70822 -0.477532 8
      vertex -2.6563 -0.711752 5
      vertex -2.6563 -0.711752 8
    endloop
  endfacet
  facet normal -0.953716 -0.300707 0
    outer loop
      vertex -2.58415 -0.940555 5
      vertex -2.6563 -0.711752 8
      vertex -2.6563 -0.711752 5
    endloop
  endfacet
  facet normal -0.953716 -0.300707 0
    outer loop
      vertex -2.6563 -0.711752 8
      vertex -2.58415 -0.940555 5
      vertex -2.58415 -0.940555 8
    endloop
  endfacet
  facet normal -0.999048 -0.0436199 0
    outer loop
      vertex -2.73954 -0.239677 5
      vertex -2.75 0 8
      vertex -2.75 0 5
    endloop
  endfacet
  facet normal -0.999048 -0.0436199 0
    outer loop
      vertex -2.75 0 8
      vertex -2.73954 -0.239677 5
      vertex -2.73954 -0.239677 8
    endloop
  endfacet
  facet normal 0 0 -1
    outer loop
      vertex 1.5 0 5
      vertex 2.75 0 5
      vertex 2.73954 -0.239677 5
    endloop
  endfacet
  facet normal 0 0 -1
    outer loop
      vertex 1.49429 -0.130733 5
      vertex 2.73954 -0.239677 5
      vertex 2.70822 -0.477532 5
    endloop
  endfacet
  facet normal 0 0 -1
    outer loop
      vertex 2.75 0 5
      vertex 1.5 0 5
      vertex 2.73954 0.239677 5
    endloop
  endfacet
  facet normal 0 0 -1
    outer loop
      vertex 1.47721 -0.260471 5
      vertex 2.70822 -0.477532 5
      vertex 2.6563 -0.711752 5
    endloop
  endfacet
  facet normal 0 0 -1
    outer loop
      vertex 1.49429 0.130733 5
      vertex 2.73954 0.239677 5
      vertex 1.5 0 5
    endloop
  endfacet
  facet normal 0 0 -1
    outer loop
      vertex 1.44889 -0.388228 5
      vertex 2.6563 -0.711752 5
      vertex 2.58415 -0.940555 5
    endloop
  endfacet
  facet normal -0 0 -1
    outer loop
      vertex 2.73954 0.239677 5
      vertex 1.49429 0.130733 5
      vertex 2.70822 0.477532 5
    endloop
  endfacet
  facet normal 0 0 -1
    outer loop
      vertex 1.40954 -0.51303 5
      vertex 2.58415 -0.940555 5
      vertex 2.49235 -1.1622 5
    endloop
  endfacet
  facet normal 0 0 -1
    outer loop
      vertex 1.47721 0.260471 5
      vertex 2.70822 0.477532 5
      vertex 1.49429 0.130733 5
    endloop
  endfacet
  facet normal 0 0 -1
    outer loop
      vertex 1.35946 -0.633927 5
      vertex 2.49235 -1.1622 5
      vertex 2.38157 -1.375 5
    endloop
  endfacet
  facet normal -0 0 -1
    outer loop
      vertex 2.70822 0.477532 5
      vertex 1.47721 0.260471 5
      vertex 2.6563 0.711752 5
    endloop
  endfacet
  facet normal 0 0 -1
    outer loop
      vertex 1.29904 -0.749999 5
      vertex 2.38157 -1.375 5
      vertex 2.25267 -1.57733 5
    endloop
  endfacet
  facet normal 0 0 -1
    outer loop
      vertex 1.44889 0.388228 5
      vertex 2.6563 0.711752 5
      vertex 1.47721 0.260471 5
    endloop
  endfacet
  facet normal 0 0 -1
    outer loop
      vertex 1.22873 -0.860364 5
      vertex 2.25267 -1.57733 5
      vertex 2.10662 -1.76767 5
    endloop
  endfacet
  facet normal -0 0 -1
    outer loop
      vertex 2.6563 0.711752 5
      vertex 1.44889 0.388228 5
      vertex 2.58415 0.940555 5
    endloop
  endfacet
  facet normal 0 0 -1
    outer loop
      vertex 1.14907 -0.964181 5
      vertex 2.10662 -1.76767 5
      vertex 1.94454 -1.94454 5
    endloop
  endfacet
  facet normal 0 0 -1
    outer loop
      vertex 1.40954 0.51303 5
      vertex 2.58415 0.940555 5
      vertex 1.44889 0.388228 5
    endloop
  endfacet
  facet normal 0 0 -1
    outer loop
      vertex 1.06066 -1.06066 5
      vertex 1.94454 -1.94454 5
      vertex 1.76767 -2.10662 5
    endloop
  endfacet
  facet normal -0 0 -1
    outer loop
      vertex 2.58415 0.940555 5
      vertex 1.40954 0.51303 5
      vertex 2.49235 1.1622 5
    endloop
  endfacet
  facet normal 0 0 -1
    outer loop
      vertex 0.964181 -1.14907 5
      vertex 1.76767 -2.10662 5
      vertex 1.57733 -2.25267 5
    endloop
  endfacet
  facet normal 0 0 -1
    outer loop
      vertex 1.35946 0.633927 5
      vertex 2.49235 1.1622 5
      vertex 1.40954 0.51303 5
    endloop
  endfacet
  facet normal -0 0 -1
    outer loop
      vertex 2.49235 1.1622 5
      vertex 1.35946 0.633927 5
      vertex 2.38157 1.375 5
    endloop
  endfacet
  facet normal 0 0 -1
    outer loop
      vertex 2.73954 -0.239677 5
      vertex 1.49429 -0.130733 5
      vertex 1.5 0 5
    endloop
  endfacet
  facet normal 0 0 -1
    outer loop
      vertex 2.70822 -0.477532 5
      vertex 1.47721 -0.260471 5
      vertex 1.49429 -0.130733 5
    endloop
  endfacet
  facet normal 0 0 -1
    outer loop
      vertex 2.6563 -0.711752 5
      vertex 1.44889 -0.388228 5
      vertex 1.47721 -0.260471 5
    endloop
  endfacet
  facet normal 0 0 -1
    outer loop
      vertex 2.58415 -0.940555 5
      vertex 1.40954 -0.51303 5
      vertex 1.44889 -0.388228 5
    endloop
  endfacet
  facet normal 0 0 -1
    outer loop
      vertex 0.860364 -1.22873 5
      vertex 1.57733 -2.25267 5
      vertex 1.375 -2.38157 5
    endloop
  endfacet
  facet normal 0 0 -1
    outer loop
      vertex 2.49235 -1.1622 5
      vertex 1.35946 -0.633927 5
      vertex 1.40954 -0.51303 5
    endloop
  endfacet
  facet normal 0 0 -1
    outer loop
      vertex 2.38157 -1.375 5
      vertex 1.29904 -0.749999 5
      vertex 1.35946 -0.633927 5
    endloop
  endfacet
  facet normal 0 0 -1
    outer loop
      vertex 2.25267 -1.57733 5
      vertex 1.22873 -0.860364 5
      vertex 1.29904 -0.749999 5
    endloop
  endfacet
  facet normal 0 0 -1
    outer loop
      vertex 0.749999 -1.29904 5
      vertex 1.375 -2.38157 5
      vertex 1.1622 -2.49235 5
    endloop
  endfacet
  facet normal 0 0 -1
    outer loop
      vertex 2.10662 -1.76767 5
      vertex 1.14907 -0.964181 5
      vertex 1.22873 -0.860364 5
    endloop
  endfacet
  facet normal 0 0 -1
    outer loop
      vertex 1.94454 -1.94454 5
      vertex 1.06066 -1.06066 5
      vertex 1.14907 -0.964181 5
    endloop
  endfacet
  facet normal 0 0 -1
    outer loop
      vertex 1.76767 -2.10662 5
      vertex 0.964181 -1.14907 5
      vertex 1.06066 -1.06066 5
    endloop
  endfacet
  facet normal 0 0 -1
    outer loop
      vertex 0.633927 -1.35946 5
      vertex 1.1622 -2.49235 5
      vertex 0.940555 -2.58415 5
    endloop
  endfacet
  facet normal 0 0 -1
    outer loop
      vertex 1.57733 -2.25267 5
      vertex 0.860364 -1.22873 5
      vertex 0.964181 -1.14907 5
    endloop
  endfacet
  facet normal 0 0 -1
    outer loop
      vertex 1.375 -2.38157 5
      vertex 0.749999 -1.29904 5
      vertex 0.860364 -1.22873 5
    endloop
  endfacet
  facet normal 0 0 -1
    outer loop
      vertex 0.51303 -1.40954 5
      vertex 0.940555 -2.58415 5
      vertex 0.711752 -2.6563 5
    endloop
  endfacet
  facet normal 0 0 -1
    outer loop
      vertex 1.1622 -2.49235 5
      vertex 0.633927 -1.35946 5
      vertex 0.749999 -1.29904 5
    endloop
  endfacet
  facet normal 0 0 -1
    outer loop
      vertex 0.940555 -2.58415 5
      vertex 0.51303 -1.40954 5
      vertex 0.633927 -1.35946 5
    endloop
  endfacet
  facet normal 0 0 -1
    outer loop
      vertex 0.388228 -1.44889 5
      vertex 0.711752 -2.6563 5
      vertex 0.477532 -2.70822 5
    endloop
  endfacet
  facet normal 0 0 -1
    outer loop
      vertex 0.711752 -2.6563 5
      vertex 0.388228 -1.44889 5
      vertex 0.51303 -1.40954 5
    endloop
  endfacet
  facet normal 0 0 -1
    outer loop
      vertex 0.477532 -2.70822 5
      vertex 0.260471 -1.47721 5
      vertex 0.388228 -1.44889 5
    endloop
  endfacet
  facet normal 0 0 -1
    outer loop
      vertex 0.239677 -2.73954 5
      vertex 0.260471 -1.47721 5
      vertex 0.477532 -2.70822 5
    endloop
  endfacet
  facet normal 0 0 -1
    outer loop
      vertex 0.239677 -2.73954 5
      vertex 0.130733 -1.49429 5
      vertex 0.260471 -1.47721 5
    endloop
  endfacet
  facet normal 0 0 -1
    outer loop
      vertex 0 -2.75 5
      vertex 0.130733 -1.49429 5
      vertex 0.239677 -2.73954 5
    endloop
  endfacet
  facet normal 0 0 -1
    outer loop
      vertex 0 -2.75 5
      vertex 0 -1.5 5
      vertex 0.130733 -1.49429 5
    endloop
  endfacet
  facet normal 0 0 -1
    outer loop
      vertex 0 -2.75 5
      vertex -0.130733 -1.49429 5
      vertex 0 -1.5 5
    endloop
  endfacet
  facet normal 0 0 -1
    outer loop
      vertex -0.239677 -2.73954 5
      vertex -0.130733 -1.49429 5
      vertex 0 -2.75 5
    endloop
  endfacet
  facet normal 0 0 -1
    outer loop
      vertex -0.239677 -2.73954 5
      vertex -0.260471 -1.47721 5
      vertex -0.130733 -1.49429 5
    endloop
  endfacet
  facet normal 0 0 -1
    outer loop
      vertex -0.477532 -2.70822 5
      vertex -0.260471 -1.47721 5
      vertex -0.239677 -2.73954 5
    endloop
  endfacet
  facet normal -0 0 -1
    outer loop
      vertex -0.260471 -1.47721 5
      vertex -0.477532 -2.70822 5
      vertex -0.388228 -1.44889 5
    endloop
  endfacet
  facet normal 0 0 -1
    outer loop
      vertex -0.711752 -2.6563 5
      vertex -0.388228 -1.44889 5
      vertex -0.477532 -2.70822 5
    endloop
  endfacet
  facet normal -0 0 -1
    outer loop
      vertex -0.388228 -1.44889 5
      vertex -0.711752 -2.6563 5
      vertex -0.51303 -1.40954 5
    endloop
  endfacet
  facet normal 0 0 -1
    outer loop
      vertex -0.940555 -2.58415 5
      vertex -0.51303 -1.40954 5
      vertex -0.711752 -2.6563 5
    endloop
  endfacet
  facet normal -0 0 -1
    outer loop
      vertex -0.51303 -1.40954 5
      vertex -0.940555 -2.58415 5
      vertex -0.633927 -1.35946 5
    endloop
  endfacet
  facet normal 0 0 -1
    outer loop
      vertex -1.1622 -2.49235 5
      vertex -0.633927 -1.35946 5
      vertex -0.940555 -2.58415 5
    endloop
  endfacet
  facet normal -0 0 -1
    outer loop
      vertex -0.633927 -1.35946 5
      vertex -1.1622 -2.49235 5
      vertex -0.75 -1.29904 5
    endloop
  endfacet
  facet normal 0 0 -1
    outer loop
      vertex -1.375 -2.38157 5
      vertex -0.75 -1.29904 5
      vertex -1.1622 -2.49235 5
    endloop
  endfacet
  facet normal -0 0 -1
    outer loop
      vertex -0.75 -1.29904 5
      vertex -1.375 -2.38157 5
      vertex -0.860364 -1.22873 5
    endloop
  endfacet
  facet normal 0 0 -1
    outer loop
      vertex -1.57733 -2.25267 5
      vertex -0.860364 -1.22873 5
      vertex -1.375 -2.38157 5
    endloop
  endfacet
  facet normal -0 0 -1
    outer loop
      vertex -0.860364 -1.22873 5
      vertex -1.57733 -2.25267 5
      vertex -0.964181 -1.14907 5
    endloop
  endfacet
  facet normal 0 0 -1
    outer loop
      vertex -1.76767 -2.10662 5
      vertex -0.964181 -1.14907 5
      vertex -1.57733 -2.25267 5
    endloop
  endfacet
  facet normal -0 0 -1
    outer loop
      vertex -0.964181 -1.14907 5
      vertex -1.76767 -2.10662 5
      vertex -1.06066 -1.06066 5
    endloop
  endfacet
  facet normal 0 0 -1
    outer loop
      vertex -1.94454 -1.94454 5
      vertex -1.06066 -1.06066 5
      vertex -1.76767 -2.10662 5
    endloop
  endfacet
  facet normal -0 0 -1
    outer loop
      vertex -1.06066 -1.06066 5
      vertex -1.94454 -1.94454 5
      vertex -1.14907 -0.964181 5
    endloop
  endfacet
  facet normal 0 0 -1
    outer loop
      vertex -2.10662 -1.76767 5
      vertex -1.14907 -0.964181 5
      vertex -1.94454 -1.94454 5
    endloop
  endfacet
  facet normal -0 0 -1
    outer loop
      vertex -1.14907 -0.964181 5
      vertex -2.10662 -1.76767 5
      vertex -1.22873 -0.860364 5
    endloop
  endfacet
  facet normal 0 0 -1
    outer loop
      vertex -2.25267 -1.57733 5
      vertex -1.22873 -0.860364 5
      vertex -2.10662 -1.76767 5
    endloop
  endfacet
  facet normal -0 0 -1
    outer loop
      vertex -1.22873 -0.860364 5
      vertex -2.25267 -1.57733 5
      vertex -1.29904 -0.75 5
    endloop
  endfacet
  facet normal -0 0 -1
    outer loop
      vertex -1.29904 -0.75 5
      vertex -2.38157 -1.375 5
      vertex -1.35946 -0.633927 5
    endloop
  endfacet
  facet normal 0 0 -1
    outer loop
      vertex -2.38157 -1.375 5
      vertex -1.29904 -0.75 5
      vertex -2.25267 -1.57733 5
    endloop
  endfacet
  facet normal 0 0 -1
    outer loop
      vertex 1.29904 0.749999 5
      vertex 2.38157 1.375 5
      vertex 1.35946 0.633927 5
    endloop
  endfacet
  facet normal -0 0 -1
    outer loop
      vertex 2.38157 1.375 5
      vertex 1.29904 0.749999 5
      vertex 2.25267 1.57733 5
    endloop
  endfacet
  facet normal 0 0 -1
    outer loop
      vertex 1.22873 0.860364 5
      vertex 2.25267 1.57733 5
      vertex 1.29904 0.749999 5
    endloop
  endfacet
  facet normal -0 0 -1
    outer loop
      vertex 2.25267 1.57733 5
      vertex 1.22873 0.860364 5
      vertex 2.10662 1.76767 5
    endloop
  endfacet
  facet normal 0 0 -1
    outer loop
      vertex 1.14907 0.964181 5
      vertex 2.10662 1.76767 5
      vertex 1.22873 0.860364 5
    endloop
  endfacet
  facet normal -0 0 -1
    outer loop
      vertex 2.10662 1.76767 5
      vertex 1.14907 0.964181 5
      vertex 1.94454 1.94454 5
    endloop
  endfacet
  facet normal 0 0 -1
    outer loop
      vertex 1.06066 1.06066 5
      vertex 1.94454 1.94454 5
      vertex 1.14907 0.964181 5
    endloop
  endfacet
  facet normal -0 0 -1
    outer loop
      vertex 1.94454 1.94454 5
      vertex 1.06066 1.06066 5
      vertex 1.76767 2.10662 5
    endloop
  endfacet
  facet normal 0 0 -1
    outer loop
      vertex 0.964181 1.14907 5
      vertex 1.76767 2.10662 5
      vertex 1.06066 1.06066 5
    endloop
  endfacet
  facet normal -0 0 -1
    outer loop
      vertex 1.76767 2.10662 5
      vertex 0.964181 1.14907 5
      vertex 1.57733 2.25267 5
    endloop
  endfacet
  facet normal 0 0 -1
    outer loop
      vertex 0.860364 1.22873 5
      vertex 1.57733 2.25267 5
      vertex 0.964181 1.14907 5
    endloop
  endfacet
  facet normal -0 0 -1
    outer loop
      vertex 1.57733 2.25267 5
      vertex 0.860364 1.22873 5
      vertex 1.375 2.38157 5
    endloop
  endfacet
  facet normal 0 0 -1
    outer loop
      vertex 0.75 1.29904 5
      vertex 1.375 2.38157 5
      vertex 0.860364 1.22873 5
    endloop
  endfacet
  facet normal -0 0 -1
    outer loop
      vertex 1.375 2.38157 5
      vertex 0.75 1.29904 5
      vertex 1.1622 2.49235 5
    endloop
  endfacet
  facet normal 0 0 -1
    outer loop
      vertex 0.633927 1.35946 5
      vertex 1.1622 2.49235 5
      vertex 0.75 1.29904 5
    endloop
  endfacet
  facet normal -0 0 -1
    outer loop
      vertex 1.1622 2.49235 5
      vertex 0.633927 1.35946 5
      vertex 0.940555 2.58415 5
    endloop
  endfacet
  facet normal 0 0 -1
    outer loop
      vertex 0.51303 1.40954 5
      vertex 0.940555 2.58415 5
      vertex 0.633927 1.35946 5
    endloop
  endfacet
  facet normal -0 0 -1
    outer loop
      vertex 0.940555 2.58415 5
      vertex 0.51303 1.40954 5
      vertex 0.711752 2.6563 5
    endloop
  endfacet
  facet normal 0 0 -1
    outer loop
      vertex 0.388228 1.44889 5
      vertex 0.711752 2.6563 5
      vertex 0.51303 1.40954 5
    endloop
  endfacet
  facet normal -0 0 -1
    outer loop
      vertex 0.711752 2.6563 5
      vertex 0.388228 1.44889 5
      vertex 0.477532 2.70822 5
    endloop
  endfacet
  facet normal 0 0 -1
    outer loop
      vertex 0.260471 1.47721 5
      vertex 0.477532 2.70822 5
      vertex 0.388228 1.44889 5
    endloop
  endfacet
  facet normal 0 0 -1
    outer loop
      vertex 0.260471 1.47721 5
      vertex 0.239677 2.73954 5
      vertex 0.477532 2.70822 5
    endloop
  endfacet
  facet normal 0 0 -1
    outer loop
      vertex 0.130733 1.49429 5
      vertex 0.239677 2.73954 5
      vertex 0.260471 1.47721 5
    endloop
  endfacet
  facet normal 0 0 -1
    outer loop
      vertex 0 1.5 5
      vertex 0.239677 2.73954 5
      vertex 0.130733 1.49429 5
    endloop
  endfacet
  facet normal 0 0 -1
    outer loop
      vertex 0 1.5 5
      vertex 0 2.75 5
      vertex 0.239677 2.73954 5
    endloop
  endfacet
  facet normal 0 0 -1
    outer loop
      vertex -0.130733 1.49429 5
      vertex 0 2.75 5
      vertex 0 1.5 5
    endloop
  endfacet
  facet normal 0 0 -1
    outer loop
      vertex -0.130733 1.49429 5
      vertex -0.239677 2.73954 5
      vertex 0 2.75 5
    endloop
  endfacet
  facet normal 0 0 -1
    outer loop
      vertex -0.260471 1.47721 5
      vertex -0.239677 2.73954 5
      vertex -0.130733 1.49429 5
    endloop
  endfacet
  facet normal 0 0 -1
    outer loop
      vertex -0.477532 2.70822 5
      vertex -0.260471 1.47721 5
      vertex -0.388228 1.44889 5
    endloop
  endfacet
  facet normal 0 0 -1
    outer loop
      vertex -0.260471 1.47721 5
      vertex -0.477532 2.70822 5
      vertex -0.239677 2.73954 5
    endloop
  endfacet
  facet normal 0 0 -1
    outer loop
      vertex -0.711752 2.6563 5
      vertex -0.388228 1.44889 5
      vertex -0.51303 1.40954 5
    endloop
  endfacet
  facet normal 0 0 -1
    outer loop
      vertex -0.940555 2.58415 5
      vertex -0.51303 1.40954 5
      vertex -0.633927 1.35946 5
    endloop
  endfacet
  facet normal 0 0 -1
    outer loop
      vertex -0.388228 1.44889 5
      vertex -0.711752 2.6563 5
      vertex -0.477532 2.70822 5
    endloop
  endfacet
  facet normal 0 0 -1
    outer loop
      vertex -1.1622 2.49235 5
      vertex -0.633927 1.35946 5
      vertex -0.749999 1.29904 5
    endloop
  endfacet
  facet normal 0 0 -1
    outer loop
      vertex -1.375 2.38157 5
      vertex -0.749999 1.29904 5
      vertex -0.860364 1.22873 5
    endloop
  endfacet
  facet normal 0 0 -1
    outer loop
      vertex -0.51303 1.40954 5
      vertex -0.940555 2.58415 5
      vertex -0.711752 2.6563 5
    endloop
  endfacet
  facet normal 0 0 -1
    outer loop
      vertex -1.57733 2.25267 5
      vertex -0.860364 1.22873 5
      vertex -0.964181 1.14907 5
    endloop
  endfacet
  facet normal 0 0 -1
    outer loop
      vertex -1.76767 2.10662 5
      vertex -0.964181 1.14907 5
      vertex -1.06066 1.06066 5
    endloop
  endfacet
  facet normal 0 0 -1
    outer loop
      vertex -1.94454 1.94454 5
      vertex -1.06066 1.06066 5
      vertex -1.14907 0.964181 5
    endloop
  endfacet
  facet normal 0 0 -1
    outer loop
      vertex -0.633927 1.35946 5
      vertex -1.1622 2.49235 5
      vertex -0.940555 2.58415 5
    endloop
  endfacet
  facet normal 0 0 -1
    outer loop
      vertex -2.10662 1.76767 5
      vertex -1.14907 0.964181 5
      vertex -1.22873 0.860364 5
    endloop
  endfacet
  facet normal 0 0 -1
    outer loop
      vertex -2.25267 1.57733 5
      vertex -1.22873 0.860364 5
      vertex -1.29904 0.75 5
    endloop
  endfacet
  facet normal 0 0 -1
    outer loop
      vertex -2.38157 1.375 5
      vertex -1.29904 0.75 5
      vertex -1.35946 0.633927 5
    endloop
  endfacet
  facet normal 0 0 -1
    outer loop
      vertex -0.749999 1.29904 5
      vertex -1.375 2.38157 5
      vertex -1.1622 2.49235 5
    endloop
  endfacet
  facet normal 0 0 -1
    outer loop
      vertex -2.49235 1.1622 5
      vertex -1.35946 0.633927 5
      vertex -1.40954 0.51303 5
    endloop
  endfacet
  facet normal 0 0 -1
    outer loop
      vertex -2.58415 0.940555 5
      vertex -1.40954 0.51303 5
      vertex -1.44889 0.388228 5
    endloop
  endfacet
  facet normal 0 0 -1
    outer loop
      vertex -2.6563 0.711752 5
      vertex -1.44889 0.388228 5
      vertex -1.47721 0.260471 5
    endloop
  endfacet
  facet normal 0 0 -1
    outer loop
      vertex -2.70822 0.477532 5
      vertex -1.47721 0.260471 5
      vertex -1.49429 0.130733 5
    endloop
  endfacet
  facet normal 0 0 -1
    outer loop
      vertex -0.860364 1.22873 5
      vertex -1.57733 2.25267 5
      vertex -1.375 2.38157 5
    endloop
  endfacet
  facet normal 0 0 -1
    outer loop
      vertex -2.73954 0.239677 5
      vertex -1.49429 0.130733 5
      vertex -1.5 0 5
    endloop
  endfacet
  facet normal 0 0 -1
    outer loop
      vertex -2.49235 -1.1622 5
      vertex -1.35946 -0.633927 5
      vertex -2.38157 -1.375 5
    endloop
  endfacet
  facet normal -0 0 -1
    outer loop
      vertex -1.35946 -0.633927 5
      vertex -2.49235 -1.1622 5
      vertex -1.40954 -0.51303 5
    endloop
  endfacet
  facet normal 0 0 -1
    outer loop
      vertex -0.964181 1.14907 5
      vertex -1.76767 2.10662 5
      vertex -1.57733 2.25267 5
    endloop
  endfacet
  facet normal 0 0 -1
    outer loop
      vertex -2.58415 -0.940555 5
      vertex -1.40954 -0.51303 5
      vertex -2.49235 -1.1622 5
    endloop
  endfacet
  facet normal 0 0 -1
    outer loop
      vertex -1.06066 1.06066 5
      vertex -1.94454 1.94454 5
      vertex -1.76767 2.10662 5
    endloop
  endfacet
  facet normal -0 0 -1
    outer loop
      vertex -1.40954 -0.51303 5
      vertex -2.58415 -0.940555 5
      vertex -1.44889 -0.388228 5
    endloop
  endfacet
  facet normal 0 0 -1
    outer loop
      vertex -1.14907 0.964181 5
      vertex -2.10662 1.76767 5
      vertex -1.94454 1.94454 5
    endloop
  endfacet
  facet normal 0 0 -1
    outer loop
      vertex -2.6563 -0.711752 5
      vertex -1.44889 -0.388228 5
      vertex -2.58415 -0.940555 5
    endloop
  endfacet
  facet normal 0 0 -1
    outer loop
      vertex -1.22873 0.860364 5
      vertex -2.25267 1.57733 5
      vertex -2.10662 1.76767 5
    endloop
  endfacet
  facet normal -0 0 -1
    outer loop
      vertex -1.44889 -0.388228 5
      vertex -2.6563 -0.711752 5
      vertex -1.47721 -0.260471 5
    endloop
  endfacet
  facet normal 0 0 -1
    outer loop
      vertex -1.29904 0.75 5
      vertex -2.38157 1.375 5
      vertex -2.25267 1.57733 5
    endloop
  endfacet
  facet normal 0 0 -1
    outer loop
      vertex -2.70822 -0.477532 5
      vertex -1.47721 -0.260471 5
      vertex -2.6563 -0.711752 5
    endloop
  endfacet
  facet normal 0 0 -1
    outer loop
      vertex -1.35946 0.633927 5
      vertex -2.49235 1.1622 5
      vertex -2.38157 1.375 5
    endloop
  endfacet
  facet normal -0 0 -1
    outer loop
      vertex -1.47721 -0.260471 5
      vertex -2.70822 -0.477532 5
      vertex -1.49429 -0.130733 5
    endloop
  endfacet
  facet normal 0 0 -1
    outer loop
      vertex -1.40954 0.51303 5
      vertex -2.58415 0.940555 5
      vertex -2.49235 1.1622 5
    endloop
  endfacet
  facet normal 0 0 -1
    outer loop
      vertex -2.73954 -0.239677 5
      vertex -1.49429 -0.130733 5
      vertex -2.70822 -0.477532 5
    endloop
  endfacet
  facet normal 0 0 -1
    outer loop
      vertex -1.44889 0.388228 5
      vertex -2.6563 0.711752 5
      vertex -2.58415 0.940555 5
    endloop
  endfacet
  facet normal -0 0 -1
    outer loop
      vertex -1.49429 -0.130733 5
      vertex -2.73954 -0.239677 5
      vertex -1.5 0 5
    endloop
  endfacet
  facet normal 0 0 -1
    outer loop
      vertex -1.47721 0.260471 5
      vertex -2.70822 0.477532 5
      vertex -2.6563 0.711752 5
    endloop
  endfacet
  facet normal 0 0 -1
    outer loop
      vertex -2.75 0 5
      vertex -1.5 0 5
      vertex -2.73954 -0.239677 5
    endloop
  endfacet
  facet normal 0 0 -1
    outer loop
      vertex -1.49429 0.130733 5
      vertex -2.73954 0.239677 5
      vertex -2.70822 0.477532 5
    endloop
  endfacet
  facet normal 0 0 -1
    outer loop
      vertex -1.5 0 5
      vertex -2.75 0 5
      vertex -2.73954 0.239677 5
    endloop
  endfacet
  facet normal -0.793355 -0.608759 0
    outer loop
      vertex -2.10662 -1.76767 5
      vertex -2.25267 -1.57733 8
      vertex -2.25267 -1.57733 5
    endloop
  endfacet
  facet normal -0.793355 -0.608759 0
    outer loop
      vertex -2.25267 -1.57733 8
      vertex -2.10662 -1.76767 5
      vertex -2.10662 -1.76767 8
    endloop
  endfacet
  facet normal -0.88701 -0.461749 0
    outer loop
      vertex -2.38157 -1.375 5
      vertex -2.49235 -1.1622 8
      vertex -2.49235 -1.1622 5
    endloop
  endfacet
  facet normal -0.88701 -0.461749 0
    outer loop
      vertex -2.49235 -1.1622 8
      vertex -2.38157 -1.375 5
      vertex -2.38157 -1.375 8
    endloop
  endfacet
  facet normal -0.737275 -0.675592 0
    outer loop
      vertex -1.94454 -1.94454 5
      vertex -2.10662 -1.76767 8
      vertex -2.10662 -1.76767 5
    endloop
  endfacet
  facet normal -0.737275 -0.675592 0
    outer loop
      vertex -2.10662 -1.76767 8
      vertex -1.94454 -1.94454 5
      vertex -1.94454 -1.94454 8
    endloop
  endfacet
  facet normal 0.991445 0.130529 0
    outer loop
      vertex 2.73954 0.239677 8
      vertex 2.70822 0.477532 5
      vertex 2.70822 0.477532 8
    endloop
  endfacet
  facet normal 0.991445 0.130529 0
    outer loop
      vertex 2.70822 0.477532 5
      vertex 2.73954 0.239677 8
      vertex 2.73954 0.239677 5
    endloop
  endfacet
  facet normal 0.843392 0.537299 0
    outer loop
      vertex 2.38157 1.375 8
      vertex 2.25267 1.57733 5
      vertex 2.25267 1.57733 8
    endloop
  endfacet
  facet normal 0.843392 0.537299 0
    outer loop
      vertex 2.25267 1.57733 5
      vertex 2.38157 1.375 8
      vertex 2.38157 1.375 5
    endloop
  endfacet
  facet normal 0.130529 0.991445 -0
    outer loop
      vertex 0.477532 2.70822 5
      vertex 0.239677 2.73954 8
      vertex 0.477532 2.70822 8
    endloop
  endfacet
  facet normal 0.130529 0.991445 0
    outer loop
      vertex 0.239677 2.73954 8
      vertex 0.477532 2.70822 5
      vertex 0.239677 2.73954 5
    endloop
  endfacet
  facet normal -0.976296 0.216438 0
    outer loop
      vertex -2.70822 0.477532 5
      vertex -2.6563 0.711752 8
      vertex -2.6563 0.711752 5
    endloop
  endfacet
  facet normal -0.976296 0.216438 0
    outer loop
      vertex -2.6563 0.711752 8
      vertex -2.70822 0.477532 5
      vertex -2.70822 0.477532 8
    endloop
  endfacet
  facet normal 0 0 1
    outer loop
      vertex 1.44338 0 8
      vertex 2.75 0 8
      vertex 2.73954 0.239677 8
    endloop
  endfacet
  facet normal 0 0 1
    outer loop
      vertex 1.44338 0 8
      vertex 2.73954 0.239677 8
      vertex 2.70822 0.477532 8
    endloop
  endfacet
  facet normal 0 0 1
    outer loop
      vertex 2.75 0 8
      vertex 1.44338 0 8
      vertex 2.73954 -0.239677 8
    endloop
  endfacet
  facet normal 0 0 1
    outer loop
      vertex 1.44338 0 8
      vertex 2.70822 0.477532 8
      vertex 2.6563 0.711752 8
    endloop
  endfacet
  facet normal 0 0 1
    outer loop
      vertex 2.73954 -0.239677 8
      vertex 1.44338 0 8
      vertex 2.70822 -0.477532 8
    endloop
  endfacet
  facet normal 0 0 1
    outer loop
      vertex 1.44338 0 8
      vertex 2.6563 0.711752 8
      vertex 2.58415 0.940555 8
    endloop
  endfacet
  facet normal 0 0 1
    outer loop
      vertex 2.70822 -0.477532 8
      vertex 1.44338 0 8
      vertex 2.6563 -0.711752 8
    endloop
  endfacet
  facet normal 0 0 1
    outer loop
      vertex 1.44338 0 8
      vertex 2.58415 0.940555 8
      vertex 2.49235 1.1622 8
    endloop
  endfacet
  facet normal 0 0 1
    outer loop
      vertex 2.6563 -0.711752 8
      vertex 1.44338 0 8
      vertex 2.58415 -0.940555 8
    endloop
  endfacet
  facet normal 0 0 1
    outer loop
      vertex 1.44338 0 8
      vertex 2.49235 1.1622 8
      vertex 2.38157 1.375 8
    endloop
  endfacet
  facet normal 0 0 1
    outer loop
      vertex 2.58415 -0.940555 8
      vertex 1.44338 0 8
      vertex 2.49235 -1.1622 8
    endloop
  endfacet
  facet normal 0 0 1
    outer loop
      vertex 0.721687 1.25 8
      vertex 2.38157 1.375 8
      vertex 2.25267 1.57733 8
    endloop
  endfacet
  facet normal 0 0 1
    outer loop
      vertex 2.49235 -1.1622 8
      vertex 1.44338 0 8
      vertex 2.38157 -1.375 8
    endloop
  endfacet
  facet normal 0 0 1
    outer loop
      vertex 0.721687 1.25 8
      vertex 2.25267 1.57733 8
      vertex 2.10662 1.76767 8
    endloop
  endfacet
  facet normal -0 0 1
    outer loop
      vertex 0.721687 -1.25 8
      vertex 2.38157 -1.375 8
      vertex 1.44338 0 8
    endloop
  endfacet
  facet normal 0 0 1
    outer loop
      vertex 0.721687 1.25 8
      vertex 2.10662 1.76767 8
      vertex 1.94454 1.94454 8
    endloop
  endfacet
  facet normal 0 0 1
    outer loop
      vertex 2.38157 -1.375 8
      vertex 0.721687 -1.25 8
      vertex 2.25267 -1.57733 8
    endloop
  endfacet
  facet normal 0 0 1
    outer loop
      vertex 0.721687 1.25 8
      vertex 1.94454 1.94454 8
      vertex 1.76767 2.10662 8
    endloop
  endfacet
  facet normal 0 0 1
    outer loop
      vertex 2.25267 -1.57733 8
      vertex 0.721687 -1.25 8
      vertex 2.10662 -1.76767 8
    endloop
  endfacet
  facet normal 0 0 1
    outer loop
      vertex 0.721687 1.25 8
      vertex 1.76767 2.10662 8
      vertex 1.57733 2.25267 8
    endloop
  endfacet
  facet normal 0 0 1
    outer loop
      vertex 2.10662 -1.76767 8
      vertex 0.721687 -1.25 8
      vertex 1.94454 -1.94454 8
    endloop
  endfacet
  facet normal 0 0 1
    outer loop
      vertex 1.94454 -1.94454 8
      vertex 0.721687 -1.25 8
      vertex 1.76767 -2.10662 8
    endloop
  endfacet
  facet normal 0 0 1
    outer loop
      vertex 0.721687 1.25 8
      vertex 1.57733 2.25267 8
      vertex 1.375 2.38157 8
    endloop
  endfacet
  facet normal 0 0 1
    outer loop
      vertex 0.721687 1.25 8
      vertex 1.375 2.38157 8
      vertex 1.1622 2.49235 8
    endloop
  endfacet
  facet normal 0 0 1
    outer loop
      vertex 0.721687 1.25 8
      vertex 1.1622 2.49235 8
      vertex 0.940555 2.58415 8
    endloop
  endfacet
  facet normal 0 0 1
    outer loop
      vertex 2.38157 1.375 8
      vertex 0.721687 1.25 8
      vertex 1.44338 0 8
    endloop
  endfacet
  facet normal 0 0 1
    outer loop
      vertex 0.711752 2.6563 8
      vertex 0.721687 1.25 8
      vertex 0.940555 2.58415 8
    endloop
  endfacet
  facet normal 0 0 1
    outer loop
      vertex 0.477532 2.70822 8
      vertex 0.721687 1.25 8
      vertex 0.711752 2.6563 8
    endloop
  endfacet
  facet normal 0 0 1
    outer loop
      vertex 0.239677 2.73954 8
      vertex 0.721687 1.25 8
      vertex 0.477532 2.70822 8
    endloop
  endfacet
  facet normal 0 0 1
    outer loop
      vertex 0 2.75 8
      vertex 0.721687 1.25 8
      vertex 0.239677 2.73954 8
    endloop
  endfacet
  facet normal 0 0 1
    outer loop
      vertex -0.721687 1.25 8
      vertex 0 2.75 8
      vertex -0.239677 2.73954 8
    endloop
  endfacet
  facet normal 0 0 1
    outer loop
      vertex -0.721687 1.25 8
      vertex -0.239677 2.73954 8
      vertex -0.477532 2.70822 8
    endloop
  endfacet
  facet normal 0 0 1
    outer loop
      vertex -0.721687 1.25 8
      vertex -0.477532 2.70822 8
      vertex -0.711752 2.6563 8
    endloop
  endfacet
  facet normal 0 0 1
    outer loop
      vertex 0 2.75 8
      vertex -0.721687 1.25 8
      vertex 0.721687 1.25 8
    endloop
  endfacet
  facet normal -0 0 1
    outer loop
      vertex -0.940555 2.58415 8
      vertex -0.721687 1.25 8
      vertex -0.711752 2.6563 8
    endloop
  endfacet
  facet normal -0 0 1
    outer loop
      vertex -1.1622 2.49235 8
      vertex -0.721687 1.25 8
      vertex -0.940555 2.58415 8
    endloop
  endfacet
  facet normal -0 0 1
    outer loop
      vertex -1.375 2.38157 8
      vertex -0.721687 1.25 8
      vertex -1.1622 2.49235 8
    endloop
  endfacet
  facet normal -0 0 1
    outer loop
      vertex -1.57733 2.25267 8
      vertex -0.721687 1.25 8
      vertex -1.375 2.38157 8
    endloop
  endfacet
  facet normal -0 0 1
    outer loop
      vertex -1.76767 2.10662 8
      vertex -0.721687 1.25 8
      vertex -1.57733 2.25267 8
    endloop
  endfacet
  facet normal 0 0 1
    outer loop
      vertex 1.76767 -2.10662 8
      vertex 0.721687 -1.25 8
      vertex 1.57733 -2.25267 8
    endloop
  endfacet
  facet normal 0 0 1
    outer loop
      vertex 1.57733 -2.25267 8
      vertex 0.721687 -1.25 8
      vertex 1.375 -2.38157 8
    endloop
  endfacet
  facet normal 0 0 1
    outer loop
      vertex 1.375 -2.38157 8
      vertex 0.721687 -1.25 8
      vertex 1.1622 -2.49235 8
    endloop
  endfacet
  facet normal 0 0 1
    outer loop
      vertex 1.1622 -2.49235 8
      vertex 0.721687 -1.25 8
      vertex 0.940555 -2.58415 8
    endloop
  endfacet
  facet normal 0 0 1
    outer loop
      vertex 0.721687 -1.25 8
      vertex 0.711752 -2.6563 8
      vertex 0.940555 -2.58415 8
    endloop
  endfacet
  facet normal 0 0 1
    outer loop
      vertex 0.721687 -1.25 8
      vertex 0.477532 -2.70822 8
      vertex 0.711752 -2.6563 8
    endloop
  endfacet
  facet normal 0 0 1
    outer loop
      vertex 0.721687 -1.25 8
      vertex 0.239677 -2.73954 8
      vertex 0.477532 -2.70822 8
    endloop
  endfacet
  facet normal 0 0 1
    outer loop
      vertex 0.721687 -1.25 8
      vertex 0 -2.75 8
      vertex 0.239677 -2.73954 8
    endloop
  endfacet
  facet normal -0 0 1
    outer loop
      vertex -0.721687 -1.25 8
      vertex 0 -2.75 8
      vertex 0.721687 -1.25 8
    endloop
  endfacet
  facet normal 0 0 1
    outer loop
      vertex 0 -2.75 8
      vertex -0.721687 -1.25 8
      vertex -0.239677 -2.73954 8
    endloop
  endfacet
  facet normal 0 0 1
    outer loop
      vertex -0.239677 -2.73954 8
      vertex -0.721687 -1.25 8
      vertex -0.477532 -2.70822 8
    endloop
  endfacet
  facet normal 0 0 1
    outer loop
      vertex -0.477532 -2.70822 8
      vertex -0.721687 -1.25 8
      vertex -0.711752 -2.6563 8
    endloop
  endfacet
  facet normal 0 0 1
    outer loop
      vertex -0.721687 -1.25 8
      vertex -0.940555 -2.58415 8
      vertex -0.711752 -2.6563 8
    endloop
  endfacet
  facet normal 0 0 1
    outer loop
      vertex -0.721687 -1.25 8
      vertex -1.1622 -2.49235 8
      vertex -0.940555 -2.58415 8
    endloop
  endfacet
  facet normal 0 0 1
    outer loop
      vertex -0.721687 -1.25 8
      vertex -1.375 -2.38157 8
      vertex -1.1622 -2.49235 8
    endloop
  endfacet
  facet normal 0 0 1
    outer loop
      vertex -2.38157 -1.375 8
      vertex -0.721687 -1.25 8
      vertex -1.44338 0 8
    endloop
  endfacet
  facet normal -0 0 1
    outer loop
      vertex -1.94454 1.94454 8
      vertex -0.721687 1.25 8
      vertex -1.76767 2.10662 8
    endloop
  endfacet
  facet normal 0 0 1
    outer loop
      vertex -0.721687 -1.25 8
      vertex -1.57733 -2.25267 8
      vertex -1.375 -2.38157 8
    endloop
  endfacet
  facet normal -0 0 1
    outer loop
      vertex -2.10662 1.76767 8
      vertex -0.721687 1.25 8
      vertex -1.94454 1.94454 8
    endloop
  endfacet
  facet normal 0 0 1
    outer loop
      vertex -0.721687 -1.25 8
      vertex -1.76767 -2.10662 8
      vertex -1.57733 -2.25267 8
    endloop
  endfacet
  facet normal -0 0 1
    outer loop
      vertex -2.25267 1.57733 8
      vertex -0.721687 1.25 8
      vertex -2.10662 1.76767 8
    endloop
  endfacet
  facet normal 0 0 1
    outer loop
      vertex -0.721687 -1.25 8
      vertex -1.94454 -1.94454 8
      vertex -1.76767 -2.10662 8
    endloop
  endfacet
  facet normal -0 0 1
    outer loop
      vertex -2.38157 1.375 8
      vertex -0.721687 1.25 8
      vertex -2.25267 1.57733 8
    endloop
  endfacet
  facet normal 0 0 1
    outer loop
      vertex -0.721687 -1.25 8
      vertex -2.10662 -1.76767 8
      vertex -1.94454 -1.94454 8
    endloop
  endfacet
  facet normal 0 0 1
    outer loop
      vertex -0.721687 1.25 8
      vertex -2.38157 1.375 8
      vertex -1.44338 0 8
    endloop
  endfacet
  facet normal 0 0 1
    outer loop
      vertex -0.721687 -1.25 8
      vertex -2.25267 -1.57733 8
      vertex -2.10662 -1.76767 8
    endloop
  endfacet
  facet normal -0 0 1
    outer loop
      vertex -2.49235 1.1622 8
      vertex -1.44338 0 8
      vertex -2.38157 1.375 8
    endloop
  endfacet
  facet normal 0 0 1
    outer loop
      vertex -0.721687 -1.25 8
      vertex -2.38157 -1.375 8
      vertex -2.25267 -1.57733 8
    endloop
  endfacet
  facet normal -0 0 1
    outer loop
      vertex -2.58415 0.940555 8
      vertex -1.44338 0 8
      vertex -2.49235 1.1622 8
    endloop
  endfacet
  facet normal 0 0 1
    outer loop
      vertex -1.44338 0 8
      vertex -2.49235 -1.1622 8
      vertex -2.38157 -1.375 8
    endloop
  endfacet
  facet normal -0 0 1
    outer loop
      vertex -2.6563 0.711752 8
      vertex -1.44338 0 8
      vertex -2.58415 0.940555 8
    endloop
  endfacet
  facet normal 0 0 1
    outer loop
      vertex -1.44338 0 8
      vertex -2.58415 -0.940555 8
      vertex -2.49235 -1.1622 8
    endloop
  endfacet
  facet normal -0 0 1
    outer loop
      vertex -2.70822 0.477532 8
      vertex -1.44338 0 8
      vertex -2.6563 0.711752 8
    endloop
  endfacet
  facet normal 0 0 1
    outer loop
      vertex -1.44338 0 8
      vertex -2.6563 -0.711752 8
      vertex -2.58415 -0.940555 8
    endloop
  endfacet
  facet normal -0 0 1
    outer loop
      vertex -2.73954 0.239677 8
      vertex -1.44338 0 8
      vertex -2.70822 0.477532 8
    endloop
  endfacet
  facet normal 0 0 1
    outer loop
      vertex -1.44338 0 8
      vertex -2.70822 -0.477532 8
      vertex -2.6563 -0.711752 8
    endloop
  endfacet
  facet normal 0 0 1
    outer loop
      vertex -2.75 0 8
      vertex -1.44338 0 8
      vertex -2.73954 0.239677 8
    endloop
  endfacet
  facet normal 0 0 1
    outer loop
      vertex -1.44338 0 8
      vertex -2.73954 -0.239677 8
      vertex -2.70822 -0.477532 8
    endloop
  endfacet
  facet normal 0 0 1
    outer loop
      vertex -1.44338 0 8
      vertex -2.75 0 8
      vertex -2.73954 -0.239677 8
    endloop
  endfacet
  facet normal 0.991445 -0.130529 0
    outer loop
      vertex 2.70822 -0.477532 8
      vertex 2.73954 -0.239677 5
      vertex 2.73954 -0.239677 8
    endloop
  endfacet
  facet normal 0.991445 -0.130529 0
    outer loop
      vertex 2.73954 -0.239677 5
      vertex 2.70822 -0.477532 8
      vertex 2.70822 -0.477532 5
    endloop
  endfacet
  facet normal 0.88701 -0.461751 0
    outer loop
      vertex 2.38157 -1.375 8
      vertex 2.49235 -1.1622 5
      vertex 2.49235 -1.1622 8
    endloop
  endfacet
  facet normal 0.88701 -0.461751 0
    outer loop
      vertex 2.49235 -1.1622 5
      vertex 2.38157 -1.375 8
      vertex 2.38157 -1.375 5
    endloop
  endfacet
  facet normal 0.843392 -0.537299 0
    outer loop
      vertex 2.25267 -1.57733 8
      vertex 2.38157 -1.375 5
      vertex 2.38157 -1.375 8
    endloop
  endfacet
  facet normal 0.843392 -0.537299 0
    outer loop
      vertex 2.38157 -1.375 5
      vertex 2.25267 -1.57733 8
      vertex 2.25267 -1.57733 5
    endloop
  endfacet
  facet normal 0.130529 -0.991445 0
    outer loop
      vertex 0.239677 -2.73954 5
      vertex 0.477532 -2.70822 8
      vertex 0.239677 -2.73954 8
    endloop
  endfacet
  facet normal 0.130529 -0.991445 0
    outer loop
      vertex 0.477532 -2.70822 8
      vertex 0.239677 -2.73954 5
      vertex 0.477532 -2.70822 5
    endloop
  endfacet
  facet normal 0.382683 -0.92388 0
    outer loop
      vertex 0.940555 -2.58415 5
      vertex 1.1622 -2.49235 8
      vertex 0.940555 -2.58415 8
    endloop
  endfacet
  facet normal 0.382683 -0.92388 0
    outer loop
      vertex 1.1622 -2.49235 8
      vertex 0.940555 -2.58415 5
      vertex 1.1622 -2.49235 5
    endloop
  endfacet
  facet normal 0.608759 -0.793355 0
    outer loop
      vertex 1.57733 -2.25267 5
      vertex 1.76767 -2.10662 8
      vertex 1.57733 -2.25267 8
    endloop
  endfacet
  facet normal 0.608759 -0.793355 0
    outer loop
      vertex 1.76767 -2.10662 8
      vertex 1.57733 -2.25267 5
      vertex 1.76767 -2.10662 5
    endloop
  endfacet
  facet normal 0.461751 -0.88701 0
    outer loop
      vertex 1.1622 -2.49235 5
      vertex 1.375 -2.38157 8
      vertex 1.1622 -2.49235 8
    endloop
  endfacet
  facet normal 0.461751 -0.88701 0
    outer loop
      vertex 1.375 -2.38157 8
      vertex 1.1622 -2.49235 5
      vertex 1.375 -2.38157 5
    endloop
  endfacet
  facet normal -0.0436199 -0.999048 0
    outer loop
      vertex -0.239677 -2.73954 5
      vertex 0 -2.75 8
      vertex -0.239677 -2.73954 8
    endloop
  endfacet
  facet normal -0.0436199 -0.999048 -0
    outer loop
      vertex 0 -2.75 8
      vertex -0.239677 -2.73954 5
      vertex 0 -2.75 5
    endloop
  endfacet
  facet normal -0.216438 -0.976296 0
    outer loop
      vertex -0.711752 -2.6563 5
      vertex -0.477532 -2.70822 8
      vertex -0.711752 -2.6563 8
    endloop
  endfacet
  facet normal -0.216438 -0.976296 -0
    outer loop
      vertex -0.477532 -2.70822 8
      vertex -0.711752 -2.6563 5
      vertex -0.477532 -2.70822 5
    endloop
  endfacet
  facet normal -0.130529 -0.991445 0
    outer loop
      vertex -0.477532 -2.70822 5
      vertex -0.239677 -2.73954 8
      vertex -0.477532 -2.70822 8
    endloop
  endfacet
  facet normal -0.130529 -0.991445 -0
    outer loop
      vertex -0.239677 -2.73954 8
      vertex -0.477532 -2.70822 5
      vertex -0.239677 -2.73954 5
    endloop
  endfacet
  facet normal -0.300707 -0.953716 0
    outer loop
      vertex -0.940555 -2.58415 5
      vertex -0.711752 -2.6563 8
      vertex -0.940555 -2.58415 8
    endloop
  endfacet
  facet normal -0.300707 -0.953716 -0
    outer loop
      vertex -0.711752 -2.6563 8
      vertex -0.940555 -2.58415 5
      vertex -0.711752 -2.6563 5
    endloop
  endfacet
  facet normal -0.608759 -0.793355 0
    outer loop
      vertex -1.76767 -2.10662 5
      vertex -1.57733 -2.25267 8
      vertex -1.76767 -2.10662 8
    endloop
  endfacet
  facet normal -0.608759 -0.793355 -0
    outer loop
      vertex -1.57733 -2.25267 8
      vertex -1.76767 -2.10662 5
      vertex -1.57733 -2.25267 5
    endloop
  endfacet
  facet normal -0.92388 -0.382683 0
    outer loop
      vertex -2.49235 -1.1622 5
      vertex -2.58415 -0.940555 8
      vertex -2.58415 -0.940555 5
    endloop
  endfacet
  facet normal -0.92388 -0.382683 0
    outer loop
      vertex -2.58415 -0.940555 8
      vertex -2.49235 -1.1622 5
      vertex -2.49235 -1.1622 8
    endloop
  endfacet
  facet normal -0.991445 -0.130529 0
    outer loop
      vertex -2.70822 -0.477532 5
      vertex -2.73954 -0.239677 8
      vertex -2.73954 -0.239677 5
    endloop
  endfacet
  facet normal -0.991445 -0.130529 0
    outer loop
      vertex -2.73954 -0.239677 8
      vertex -2.70822 -0.477532 5
      vertex -2.70822 -0.477532 8
    endloop
  endfacet
  facet normal -0.843391 -0.5373 0
    outer loop
      vertex -2.25267 -1.57733 5
      vertex -2.38157 -1.375 8
      vertex -2.38157 -1.375 5
    endloop
  endfacet
  facet normal -0.843391 -0.5373 0
    outer loop
      vertex -2.38157 -1.375 8
      vertex -2.25267 -1.57733 5
      vertex -2.25267 -1.57733 8
    endloop
  endfacet
  facet normal -0.130529 0.991445 0
    outer loop
      vertex -0.239677 2.73954 5
      vertex -0.477532 2.70822 8
      vertex -0.239677 2.73954 8
    endloop
  endfacet
  facet normal -0.130529 0.991445 0
    outer loop
      vertex -0.477532 2.70822 8
      vertex -0.239677 2.73954 5
      vertex -0.477532 2.70822 5
    endloop
  endfacet
  facet normal 0.92388 -0.382683 0
    outer loop
      vertex 2.49235 -1.1622 8
      vertex 2.58415 -0.940555 5
      vertex 2.58415 -0.940555 8
    endloop
  endfacet
  facet normal 0.92388 -0.382683 0
    outer loop
      vertex 2.58415 -0.940555 5
      vertex 2.49235 -1.1622 8
      vertex 2.49235 -1.1622 5
    endloop
  endfacet
  facet normal 0.216438 -0.976296 0
    outer loop
      vertex 0.477532 -2.70822 5
      vertex 0.711752 -2.6563 8
      vertex 0.477532 -2.70822 8
    endloop
  endfacet
  facet normal 0.216438 -0.976296 0
    outer loop
      vertex 0.711752 -2.6563 8
      vertex 0.477532 -2.70822 5
      vertex 0.711752 -2.6563 5
    endloop
  endfacet
  facet normal 0.537299 -0.843392 0
    outer loop
      vertex 1.375 -2.38157 5
      vertex 1.57733 -2.25267 8
      vertex 1.375 -2.38157 8
    endloop
  endfacet
  facet normal 0.537299 -0.843392 0
    outer loop
      vertex 1.57733 -2.25267 8
      vertex 1.375 -2.38157 5
      vertex 1.57733 -2.25267 5
    endloop
  endfacet
  facet normal -0.866025 -0.500001 0
    outer loop
      vertex 1.44338 0 5.765
      vertex 0.721687 1.25 8
      vertex 0.721687 1.25 5.765
    endloop
  endfacet
  facet normal -0.866025 -0.500001 0
    outer loop
      vertex 0.721687 1.25 8
      vertex 1.44338 0 5.765
      vertex 1.44338 0 8
    endloop
  endfacet
  facet normal 0.866025 -0.5 0
    outer loop
      vertex -1.44338 0 8
      vertex -0.721687 1.25 5.765
      vertex -0.721687 1.25 8
    endloop
  endfacet
  facet normal 0.866025 -0.5 0
    outer loop
      vertex -0.721687 1.25 5.765
      vertex -1.44338 0 8
      vertex -1.44338 0 5.765
    endloop
  endfacet
  facet normal -6.60725e-07 -1 0
    outer loop
      vertex -0.721687 1.25 5.765
      vertex 0.721687 1.25 8
      vertex -0.721687 1.25 8
    endloop
  endfacet
  facet normal -6.60725e-07 -1 -0
    outer loop
      vertex 0.721687 1.25 8
      vertex -0.721687 1.25 5.765
      vertex 0.721687 1.25 5.765
    endloop
  endfacet
  facet normal 0.866025 0.500001 0
    outer loop
      vertex -0.721687 -1.25 8
      vertex -1.44338 0 5.765
      vertex -1.44338 0 8
    endloop
  endfacet
  facet normal 0.866025 0.500001 0
    outer loop
      vertex -1.44338 0 5.765
      vertex -0.721687 -1.25 8
      vertex -0.721687 -1.25 5.765
    endloop
  endfacet
  facet normal 0 0 1
    outer loop
      vertex 0.721687 1.25 5.765
      vertex 0.721687 -1.25 5.765
      vertex 1.44338 0 5.765
    endloop
  endfacet
  facet normal 0 0 1
    outer loop
      vertex -0.721687 1.25 5.765
      vertex 0.721687 -1.25 5.765
      vertex 0.721687 1.25 5.765
    endloop
  endfacet
  facet normal 0 0 1
    outer loop
      vertex -0.721687 1.25 5.765
      vertex -0.721687 -1.25 5.765
      vertex 0.721687 -1.25 5.765
    endloop
  endfacet
  facet normal 0 -0 1
    outer loop
      vertex -0.721687 -1.25 5.765
      vertex -0.721687 1.25 5.765
      vertex -1.44338 0 5.765
    endloop
  endfacet
  facet normal 0 1 -0
    outer loop
      vertex 0.721687 -1.25 5.765
      vertex -0.721687 -1.25 8
      vertex 0.721687 -1.25 8
    endloop
  endfacet
  facet normal 0 1 0
    outer loop
      vertex -0.721687 -1.25 8
      vertex 0.721687 -1.25 5.765
      vertex -0.721687 -1.25 5.765
    endloop
  endfacet
  facet normal -0.866025 0.500001 0
    outer loop
      vertex 0.721687 -1.25 5.765
      vertex 1.44338 0 8
      vertex 1.44338 0 5.765
    endloop
  endfacet
  facet normal -0.866025 0.500001 0
    outer loop
      vertex 1.44338 0 8
      vertex 0.721687 -1.25 5.765
      vertex 0.721687 -1.25 8
    endloop
  endfacet
  facet normal 0.60876 0.793354 -0
    outer loop
      vertex 0.964181 1.14907 -5
      vertex 0.860364 1.22873 5
      vertex 0.964181 1.14907 5
    endloop
  endfacet
  facet normal 0.60876 0.793354 0
    outer loop
      vertex 0.860364 1.22873 5
      vertex 0.964181 1.14907 -5
      vertex 0.860364 1.22873 -5
    endloop
  endfacet
  facet normal -0.300704 0.953717 0
    outer loop
      vertex -0.388228 1.44889 -5
      vertex -0.51303 1.40954 5
      vertex -0.388228 1.44889 5
    endloop
  endfacet
  facet normal -0.300704 0.953717 0
    outer loop
      vertex -0.51303 1.40954 5
      vertex -0.388228 1.44889 -5
      vertex -0.51303 1.40954 -5
    endloop
  endfacet
  facet normal -0.923879 0.382684 0
    outer loop
      vertex -1.40954 0.51303 -5
      vertex -1.35946 0.633927 5
      vertex -1.35946 0.633927 -5
    endloop
  endfacet
  facet normal -0.923879 0.382684 0
    outer loop
      vertex -1.35946 0.633927 5
      vertex -1.40954 0.51303 -5
      vertex -1.40954 0.51303 5
    endloop
  endfacet
  facet normal -0.382684 -0.923879 0
    outer loop
      vertex -0.633927 -1.35946 -5
      vertex -0.51303 -1.40954 5
      vertex -0.633927 -1.35946 5
    endloop
  endfacet
  facet normal -0.382684 -0.923879 -0
    outer loop
      vertex -0.51303 -1.40954 5
      vertex -0.633927 -1.35946 -5
      vertex -0.51303 -1.40954 -5
    endloop
  endfacet
  facet normal 0.887011 0.461747 0
    outer loop
      vertex 1.35946 0.633927 5
      vertex 1.29904 0.749999 -5
      vertex 1.29904 0.749999 5
    endloop
  endfacet
  facet normal 0.887011 0.461747 0
    outer loop
      vertex 1.29904 0.749999 -5
      vertex 1.35946 0.633927 5
      vertex 1.35946 0.633927 -5
    endloop
  endfacet
  facet normal 0.84339 0.537302 0
    outer loop
      vertex 1.29904 0.749999 5
      vertex 1.22873 0.860364 -5
      vertex 1.22873 0.860364 5
    endloop
  endfacet
  facet normal 0.84339 0.537302 0
    outer loop
      vertex 1.22873 0.860364 -5
      vertex 1.29904 0.749999 5
      vertex 1.29904 0.749999 -5
    endloop
  endfacet
  facet normal 0.382684 0.923879 -0
    outer loop
      vertex 0.633927 1.35946 -5
      vertex 0.51303 1.40954 5
      vertex 0.633927 1.35946 5
    endloop
  endfacet
  facet normal 0.382684 0.923879 0
    outer loop
      vertex 0.51303 1.40954 5
      vertex 0.633927 1.35946 -5
      vertex 0.51303 1.40954 -5
    endloop
  endfacet
  facet normal -0.737276 0.675592 0
    outer loop
      vertex -1.14907 0.964181 -5
      vertex -1.06066 1.06066 5
      vertex -1.06066 1.06066 -5
    endloop
  endfacet
  facet normal -0.737276 0.675592 0
    outer loop
      vertex -1.06066 1.06066 5
      vertex -1.14907 0.964181 -5
      vertex -1.14907 0.964181 5
    endloop
  endfacet
  facet normal -0.130526 0.991445 0
    outer loop
      vertex -0.130733 1.49429 -5
      vertex -0.260471 1.47721 5
      vertex -0.130733 1.49429 5
    endloop
  endfacet
  facet normal -0.130526 0.991445 0
    outer loop
      vertex -0.260471 1.47721 5
      vertex -0.130733 1.49429 -5
      vertex -0.260471 1.47721 -5
    endloop
  endfacet
  facet normal 0.793354 -0.60876 0
    outer loop
      vertex 1.14907 -0.964181 5
      vertex 1.22873 -0.860364 -5
      vertex 1.22873 -0.860364 5
    endloop
  endfacet
  facet normal 0.793354 -0.60876 0
    outer loop
      vertex 1.22873 -0.860364 -5
      vertex 1.14907 -0.964181 5
      vertex 1.14907 -0.964181 -5
    endloop
  endfacet
  facet normal -0.130526 -0.991445 0
    outer loop
      vertex -0.260471 -1.47721 -5
      vertex -0.130733 -1.49429 5
      vertex -0.260471 -1.47721 5
    endloop
  endfacet
  facet normal -0.130526 -0.991445 -0
    outer loop
      vertex -0.130733 -1.49429 5
      vertex -0.260471 -1.47721 -5
      vertex -0.130733 -1.49429 -5
    endloop
  endfacet
  facet normal -0.675592 -0.737276 0
    outer loop
      vertex -1.06066 -1.06066 -5
      vertex -0.964181 -1.14907 5
      vertex -1.06066 -1.06066 5
    endloop
  endfacet
  facet normal -0.675592 -0.737276 -0
    outer loop
      vertex -0.964181 -1.14907 5
      vertex -1.06066 -1.06066 -5
      vertex -0.964181 -1.14907 -5
    endloop
  endfacet
  facet normal -0.953717 -0.300704 0
    outer loop
      vertex -1.40954 -0.51303 -5
      vertex -1.44889 -0.388228 5
      vertex -1.44889 -0.388228 -5
    endloop
  endfacet
  facet normal -0.953717 -0.300704 0
    outer loop
      vertex -1.44889 -0.388228 5
      vertex -1.40954 -0.51303 -5
      vertex -1.40954 -0.51303 5
    endloop
  endfacet
  facet normal -0.843388 -0.537305 0
    outer loop
      vertex -1.22873 -0.860364 -5
      vertex -1.29904 -0.75 5
      vertex -1.29904 -0.75 -5
    endloop
  endfacet
  facet normal -0.843388 -0.537305 0
    outer loop
      vertex -1.29904 -0.75 5
      vertex -1.22873 -0.860364 -5
      vertex -1.22873 -0.860364 5
    endloop
  endfacet
  facet normal 0.976296 0.21644 0
    outer loop
      vertex 1.47721 0.260471 5
      vertex 1.44889 0.388228 -5
      vertex 1.44889 0.388228 5
    endloop
  endfacet
  facet normal 0.976296 0.21644 0
    outer loop
      vertex 1.44889 0.388228 -5
      vertex 1.47721 0.260471 5
      vertex 1.47721 0.260471 -5
    endloop
  endfacet
  facet normal 0.923879 0.382684 0
    outer loop
      vertex 1.40954 0.51303 5
      vertex 1.35946 0.633927 -5
      vertex 1.35946 0.633927 5
    endloop
  endfacet
  facet normal 0.923879 0.382684 0
    outer loop
      vertex 1.35946 0.633927 -5
      vertex 1.40954 0.51303 5
      vertex 1.40954 0.51303 -5
    endloop
  endfacet
  facet normal 0.737276 0.675592 0
    outer loop
      vertex 1.14907 0.964181 5
      vertex 1.06066 1.06066 -5
      vertex 1.06066 1.06066 5
    endloop
  endfacet
  facet normal 0.737276 0.675592 0
    outer loop
      vertex 1.06066 1.06066 -5
      vertex 1.14907 0.964181 5
      vertex 1.14907 0.964181 -5
    endloop
  endfacet
  facet normal 0.793354 0.60876 0
    outer loop
      vertex 1.22873 0.860364 5
      vertex 1.14907 0.964181 -5
      vertex 1.14907 0.964181 5
    endloop
  endfacet
  facet normal 0.793354 0.60876 0
    outer loop
      vertex 1.14907 0.964181 -5
      vertex 1.22873 0.860364 5
      vertex 1.22873 0.860364 -5
    endloop
  endfacet
  facet normal 0.675592 0.737276 -0
    outer loop
      vertex 1.06066 1.06066 -5
      vertex 0.964181 1.14907 5
      vertex 1.06066 1.06066 5
    endloop
  endfacet
  facet normal 0.675592 0.737276 0
    outer loop
      vertex 0.964181 1.14907 5
      vertex 1.06066 1.06066 -5
      vertex 0.964181 1.14907 -5
    endloop
  endfacet
  facet normal 0.537305 0.843388 -0
    outer loop
      vertex 0.860364 1.22873 -5
      vertex 0.75 1.29904 5
      vertex 0.860364 1.22873 5
    endloop
  endfacet
  facet normal 0.537305 0.843388 0
    outer loop
      vertex 0.75 1.29904 5
      vertex 0.860364 1.22873 -5
      vertex 0.75 1.29904 -5
    endloop
  endfacet
  facet normal 0.0436251 0.999048 -0
    outer loop
      vertex 0.130733 1.49429 -5
      vertex 0 1.5 5
      vertex 0.130733 1.49429 5
    endloop
  endfacet
  facet normal 0.0436251 0.999048 0
    outer loop
      vertex 0 1.5 5
      vertex 0.130733 1.49429 -5
      vertex 0 1.5 -5
    endloop
  endfacet
  facet normal 0.461744 0.887013 -0
    outer loop
      vertex 0.75 1.29904 -5
      vertex 0.633927 1.35946 5
      vertex 0.75 1.29904 5
    endloop
  endfacet
  facet normal 0.461744 0.887013 0
    outer loop
      vertex 0.633927 1.35946 5
      vertex 0.75 1.29904 -5
      vertex 0.633927 1.35946 -5
    endloop
  endfacet
  facet normal 0.300704 0.953717 -0
    outer loop
      vertex 0.51303 1.40954 -5
      vertex 0.388228 1.44889 5
      vertex 0.51303 1.40954 5
    endloop
  endfacet
  facet normal 0.300704 0.953717 0
    outer loop
      vertex 0.388228 1.44889 5
      vertex 0.51303 1.40954 -5
      vertex 0.388228 1.44889 -5
    endloop
  endfacet
  facet normal 0.21644 0.976296 -0
    outer loop
      vertex 0.388228 1.44889 -5
      vertex 0.260471 1.47721 5
      vertex 0.388228 1.44889 5
    endloop
  endfacet
  facet normal 0.21644 0.976296 0
    outer loop
      vertex 0.260471 1.47721 5
      vertex 0.388228 1.44889 -5
      vertex 0.260471 1.47721 -5
    endloop
  endfacet
  facet normal -0.999048 0.0436251 0
    outer loop
      vertex -1.5 0 -5
      vertex -1.49429 0.130733 5
      vertex -1.49429 0.130733 -5
    endloop
  endfacet
  facet normal -0.999048 0.0436251 0
    outer loop
      vertex -1.49429 0.130733 5
      vertex -1.5 0 -5
      vertex -1.5 0 5
    endloop
  endfacet
  facet normal -0.953717 0.300704 0
    outer loop
      vertex -1.44889 0.388228 -5
      vertex -1.40954 0.51303 5
      vertex -1.40954 0.51303 -5
    endloop
  endfacet
  facet normal -0.953717 0.300704 0
    outer loop
      vertex -1.40954 0.51303 5
      vertex -1.44889 0.388228 -5
      vertex -1.44889 0.388228 5
    endloop
  endfacet
  facet normal -0.976296 0.21644 0
    outer loop
      vertex -1.47721 0.260471 -5
      vertex -1.44889 0.388228 5
      vertex -1.44889 0.388228 -5
    endloop
  endfacet
  facet normal -0.976296 0.21644 0
    outer loop
      vertex -1.44889 0.388228 5
      vertex -1.47721 0.260471 -5
      vertex -1.47721 0.260471 5
    endloop
  endfacet
  facet normal -0.887013 0.461744 0
    outer loop
      vertex -1.35946 0.633927 -5
      vertex -1.29904 0.75 5
      vertex -1.29904 0.75 -5
    endloop
  endfacet
  facet normal -0.887013 0.461744 0
    outer loop
      vertex -1.29904 0.75 5
      vertex -1.35946 0.633927 -5
      vertex -1.35946 0.633927 5
    endloop
  endfacet
  facet normal -0.843388 0.537305 0
    outer loop
      vertex -1.29904 0.75 -5
      vertex -1.22873 0.860364 5
      vertex -1.22873 0.860364 -5
    endloop
  endfacet
  facet normal -0.843388 0.537305 0
    outer loop
      vertex -1.22873 0.860364 5
      vertex -1.29904 0.75 -5
      vertex -1.29904 0.75 5
    endloop
  endfacet
  facet normal -0.21644 0.976296 0
    outer loop
      vertex -0.260471 1.47721 -5
      vertex -0.388228 1.44889 5
      vertex -0.260471 1.47721 5
    endloop
  endfacet
  facet normal -0.21644 0.976296 0
    outer loop
      vertex -0.388228 1.44889 5
      vertex -0.260471 1.47721 -5
      vertex -0.388228 1.44889 -5
    endloop
  endfacet
  facet normal -0.0436251 0.999048 0
    outer loop
      vertex 0 1.5 -5
      vertex -0.130733 1.49429 5
      vertex 0 1.5 5
    endloop
  endfacet
  facet normal -0.0436251 0.999048 0
    outer loop
      vertex -0.130733 1.49429 5
      vertex 0 1.5 -5
      vertex -0.130733 1.49429 -5
    endloop
  endfacet
  facet normal -0.461747 0.887011 0
    outer loop
      vertex -0.633927 1.35946 -5
      vertex -0.749999 1.29904 5
      vertex -0.633927 1.35946 5
    endloop
  endfacet
  facet normal -0.461747 0.887011 0
    outer loop
      vertex -0.749999 1.29904 5
      vertex -0.633927 1.35946 -5
      vertex -0.749999 1.29904 -5
    endloop
  endfacet
  facet normal -0.382684 0.923879 0
    outer loop
      vertex -0.51303 1.40954 -5
      vertex -0.633927 1.35946 5
      vertex -0.51303 1.40954 5
    endloop
  endfacet
  facet normal -0.382684 0.923879 0
    outer loop
      vertex -0.633927 1.35946 5
      vertex -0.51303 1.40954 -5
      vertex -0.633927 1.35946 -5
    endloop
  endfacet
  facet normal -0.675592 0.737276 0
    outer loop
      vertex -0.964181 1.14907 -5
      vertex -1.06066 1.06066 5
      vertex -0.964181 1.14907 5
    endloop
  endfacet
  facet normal -0.675592 0.737276 0
    outer loop
      vertex -1.06066 1.06066 5
      vertex -0.964181 1.14907 -5
      vertex -1.06066 1.06066 -5
    endloop
  endfacet
  facet normal 0.999048 0.0436251 0
    outer loop
      vertex 1.5 0 5
      vertex 1.49429 0.130733 -5
      vertex 1.49429 0.130733 5
    endloop
  endfacet
  facet normal 0.999048 0.0436251 0
    outer loop
      vertex 1.49429 0.130733 -5
      vertex 1.5 0 5
      vertex 1.5 0 -5
    endloop
  endfacet
  facet normal 0.21644 -0.976296 0
    outer loop
      vertex 0.260471 -1.47721 -5
      vertex 0.388228 -1.44889 5
      vertex 0.260471 -1.47721 5
    endloop
  endfacet
  facet normal 0.21644 -0.976296 0
    outer loop
      vertex 0.388228 -1.44889 5
      vertex 0.260471 -1.47721 -5
      vertex 0.388228 -1.44889 -5
    endloop
  endfacet
  facet normal 0.300704 -0.953717 0
    outer loop
      vertex 0.388228 -1.44889 -5
      vertex 0.51303 -1.40954 5
      vertex 0.388228 -1.44889 5
    endloop
  endfacet
  facet normal 0.300704 -0.953717 0
    outer loop
      vertex 0.51303 -1.40954 5
      vertex 0.388228 -1.44889 -5
      vertex 0.51303 -1.40954 -5
    endloop
  endfacet
  facet normal 0.675592 -0.737276 0
    outer loop
      vertex 0.964181 -1.14907 -5
      vertex 1.06066 -1.06066 5
      vertex 0.964181 -1.14907 5
    endloop
  endfacet
  facet normal 0.675592 -0.737276 0
    outer loop
      vertex 1.06066 -1.06066 5
      vertex 0.964181 -1.14907 -5
      vertex 1.06066 -1.06066 -5
    endloop
  endfacet
  facet normal 0.60876 -0.793354 0
    outer loop
      vertex 0.860364 -1.22873 -5
      vertex 0.964181 -1.14907 5
      vertex 0.860364 -1.22873 5
    endloop
  endfacet
  facet normal 0.60876 -0.793354 0
    outer loop
      vertex 0.964181 -1.14907 5
      vertex 0.860364 -1.22873 -5
      vertex 0.964181 -1.14907 -5
    endloop
  endfacet
  facet normal 0.461747 -0.887011 0
    outer loop
      vertex 0.633927 -1.35946 -5
      vertex 0.749999 -1.29904 5
      vertex 0.633927 -1.35946 5
    endloop
  endfacet
  facet normal 0.461747 -0.887011 0
    outer loop
      vertex 0.749999 -1.29904 5
      vertex 0.633927 -1.35946 -5
      vertex 0.749999 -1.29904 -5
    endloop
  endfacet
  facet normal 0.887011 -0.461747 0
    outer loop
      vertex 1.29904 -0.749999 5
      vertex 1.35946 -0.633927 -5
      vertex 1.35946 -0.633927 5
    endloop
  endfacet
  facet normal 0.887011 -0.461747 0
    outer loop
      vertex 1.35946 -0.633927 -5
      vertex 1.29904 -0.749999 5
      vertex 1.29904 -0.749999 -5
    endloop
  endfacet
  facet normal -0.0436251 -0.999048 0
    outer loop
      vertex -0.130733 -1.49429 -5
      vertex 0 -1.5 5
      vertex -0.130733 -1.49429 5
    endloop
  endfacet
  facet normal -0.0436251 -0.999048 -0
    outer loop
      vertex 0 -1.5 5
      vertex -0.130733 -1.49429 -5
      vertex 0 -1.5 -5
    endloop
  endfacet
  facet normal -0.300704 -0.953717 0
    outer loop
      vertex -0.51303 -1.40954 -5
      vertex -0.388228 -1.44889 5
      vertex -0.51303 -1.40954 5
    endloop
  endfacet
  facet normal -0.300704 -0.953717 -0
    outer loop
      vertex -0.388228 -1.44889 5
      vertex -0.51303 -1.40954 -5
      vertex -0.388228 -1.44889 -5
    endloop
  endfacet
  facet normal -0.461744 -0.887013 0
    outer loop
      vertex -0.75 -1.29904 -5
      vertex -0.633927 -1.35946 5
      vertex -0.75 -1.29904 5
    endloop
  endfacet
  facet normal -0.461744 -0.887013 -0
    outer loop
      vertex -0.633927 -1.35946 5
      vertex -0.75 -1.29904 -5
      vertex -0.633927 -1.35946 -5
    endloop
  endfacet
  facet normal -0.537305 -0.843388 0
    outer loop
      vertex -0.860364 -1.22873 -5
      vertex -0.75 -1.29904 5
      vertex -0.860364 -1.22873 5
    endloop
  endfacet
  facet normal -0.537305 -0.843388 -0
    outer loop
      vertex -0.75 -1.29904 5
      vertex -0.860364 -1.22873 -5
      vertex -0.75 -1.29904 -5
    endloop
  endfacet
  facet normal -0.999048 -0.0436251 0
    outer loop
      vertex -1.49429 -0.130733 -5
      vertex -1.5 0 5
      vertex -1.5 0 -5
    endloop
  endfacet
  facet normal -0.999048 -0.0436251 0
    outer loop
      vertex -1.5 0 5
      vertex -1.49429 -0.130733 -5
      vertex -1.49429 -0.130733 5
    endloop
  endfacet
  facet normal -0.976296 -0.21644 0
    outer loop
      vertex -1.44889 -0.388228 -5
      vertex -1.47721 -0.260471 5
      vertex -1.47721 -0.260471 -5
    endloop
  endfacet
  facet normal -0.976296 -0.21644 0
    outer loop
      vertex -1.47721 -0.260471 5
      vertex -1.44889 -0.388228 -5
      vertex -1.44889 -0.388228 5
    endloop
  endfacet
  facet normal 0 0 -1
    outer loop
      vertex 1.49429 -0.130733 -5
      vertex 1.49429 0.130733 -5
      vertex 1.5 0 -5
    endloop
  endfacet
  facet normal 0 0 -1
    outer loop
      vertex 1.47721 -0.260471 -5
      vertex 1.49429 0.130733 -5
      vertex 1.49429 -0.130733 -5
    endloop
  endfacet
  facet normal 0 0 -1
    outer loop
      vertex 1.47721 -0.260471 -5
      vertex 1.47721 0.260471 -5
      vertex 1.49429 0.130733 -5
    endloop
  endfacet
  facet normal 0 0 -1
    outer loop
      vertex 1.44889 -0.388228 -5
      vertex 1.47721 0.260471 -5
      vertex 1.47721 -0.260471 -5
    endloop
  endfacet
  facet normal 0 0 -1
    outer loop
      vertex 1.44889 -0.388228 -5
      vertex 1.44889 0.388228 -5
      vertex 1.47721 0.260471 -5
    endloop
  endfacet
  facet normal 0 0 -1
    outer loop
      vertex 1.40954 -0.51303 -5
      vertex 1.44889 0.388228 -5
      vertex 1.44889 -0.388228 -5
    endloop
  endfacet
  facet normal 0 0 -1
    outer loop
      vertex 1.40954 -0.51303 -5
      vertex 1.40954 0.51303 -5
      vertex 1.44889 0.388228 -5
    endloop
  endfacet
  facet normal 0 0 -1
    outer loop
      vertex 1.35946 -0.633927 -5
      vertex 1.40954 0.51303 -5
      vertex 1.40954 -0.51303 -5
    endloop
  endfacet
  facet normal 0 0 -1
    outer loop
      vertex 1.35946 -0.633927 -5
      vertex 1.35946 0.633927 -5
      vertex 1.40954 0.51303 -5
    endloop
  endfacet
  facet normal 0 0 -1
    outer loop
      vertex 1.29904 -0.749999 -5
      vertex 1.35946 0.633927 -5
      vertex 1.35946 -0.633927 -5
    endloop
  endfacet
  facet normal 0 0 -1
    outer loop
      vertex 1.29904 -0.749999 -5
      vertex 1.29904 0.749999 -5
      vertex 1.35946 0.633927 -5
    endloop
  endfacet
  facet normal 0 0 -1
    outer loop
      vertex 1.22873 -0.860364 -5
      vertex 1.29904 0.749999 -5
      vertex 1.29904 -0.749999 -5
    endloop
  endfacet
  facet normal 0 0 -1
    outer loop
      vertex 1.22873 -0.860364 -5
      vertex 1.22873 0.860364 -5
      vertex 1.29904 0.749999 -5
    endloop
  endfacet
  facet normal 0 0 -1
    outer loop
      vertex 1.14907 -0.964181 -5
      vertex 1.22873 0.860364 -5
      vertex 1.22873 -0.860364 -5
    endloop
  endfacet
  facet normal 0 0 -1
    outer loop
      vertex 1.14907 -0.964181 -5
      vertex 1.14907 0.964181 -5
      vertex 1.22873 0.860364 -5
    endloop
  endfacet
  facet normal 0 0 -1
    outer loop
      vertex 1.06066 -1.06066 -5
      vertex 1.14907 0.964181 -5
      vertex 1.14907 -0.964181 -5
    endloop
  endfacet
  facet normal 0 0 -1
    outer loop
      vertex 1.06066 -1.06066 -5
      vertex 1.06066 1.06066 -5
      vertex 1.14907 0.964181 -5
    endloop
  endfacet
  facet normal 0 0 -1
    outer loop
      vertex 0.964181 -1.14907 -5
      vertex 1.06066 1.06066 -5
      vertex 1.06066 -1.06066 -5
    endloop
  endfacet
  facet normal 0 0 -1
    outer loop
      vertex 0.964181 -1.14907 -5
      vertex 0.964181 1.14907 -5
      vertex 1.06066 1.06066 -5
    endloop
  endfacet
  facet normal 0 0 -1
    outer loop
      vertex 0.860364 -1.22873 -5
      vertex 0.964181 1.14907 -5
      vertex 0.964181 -1.14907 -5
    endloop
  endfacet
  facet normal 0 0 -1
    outer loop
      vertex 0.860364 -1.22873 -5
      vertex 0.860364 1.22873 -5
      vertex 0.964181 1.14907 -5
    endloop
  endfacet
  facet normal 0 0 -1
    outer loop
      vertex 0.860364 -1.22873 -5
      vertex 0.75 1.29904 -5
      vertex 0.860364 1.22873 -5
    endloop
  endfacet
  facet normal 0 0 -1
    outer loop
      vertex 0.749999 -1.29904 -5
      vertex 0.75 1.29904 -5
      vertex 0.860364 -1.22873 -5
    endloop
  endfacet
  facet normal 0 0 -1
    outer loop
      vertex 0.633927 -1.35946 -5
      vertex 0.75 1.29904 -5
      vertex 0.749999 -1.29904 -5
    endloop
  endfacet
  facet normal 0 0 -1
    outer loop
      vertex 0.633927 -1.35946 -5
      vertex 0.633927 1.35946 -5
      vertex 0.75 1.29904 -5
    endloop
  endfacet
  facet normal 0 0 -1
    outer loop
      vertex 0.51303 -1.40954 -5
      vertex 0.633927 1.35946 -5
      vertex 0.633927 -1.35946 -5
    endloop
  endfacet
  facet normal 0 0 -1
    outer loop
      vertex 0.51303 -1.40954 -5
      vertex 0.51303 1.40954 -5
      vertex 0.633927 1.35946 -5
    endloop
  endfacet
  facet normal 0 0 -1
    outer loop
      vertex 0.388228 -1.44889 -5
      vertex 0.51303 1.40954 -5
      vertex 0.51303 -1.40954 -5
    endloop
  endfacet
  facet normal 0 0 -1
    outer loop
      vertex 0.388228 -1.44889 -5
      vertex 0.388228 1.44889 -5
      vertex 0.51303 1.40954 -5
    endloop
  endfacet
  facet normal 0 0 -1
    outer loop
      vertex 0.260471 -1.47721 -5
      vertex 0.388228 1.44889 -5
      vertex 0.388228 -1.44889 -5
    endloop
  endfacet
  facet normal 0 0 -1
    outer loop
      vertex 0.260471 -1.47721 -5
      vertex 0.260471 1.47721 -5
      vertex 0.388228 1.44889 -5
    endloop
  endfacet
  facet normal 0 0 -1
    outer loop
      vertex 0.130733 -1.49429 -5
      vertex 0.260471 1.47721 -5
      vertex 0.260471 -1.47721 -5
    endloop
  endfacet
  facet normal 0 0 -1
    outer loop
      vertex 0.130733 -1.49429 -5
      vertex 0.130733 1.49429 -5
      vertex 0.260471 1.47721 -5
    endloop
  endfacet
  facet normal 0 0 -1
    outer loop
      vertex 0 -1.5 -5
      vertex 0.130733 1.49429 -5
      vertex 0.130733 -1.49429 -5
    endloop
  endfacet
  facet normal 0 0 -1
    outer loop
      vertex 0 -1.5 -5
      vertex 0 1.5 -5
      vertex 0.130733 1.49429 -5
    endloop
  endfacet
  facet normal 0 0 -1
    outer loop
      vertex -0.130733 -1.49429 -5
      vertex 0 1.5 -5
      vertex 0 -1.5 -5
    endloop
  endfacet
  facet normal 0 0 -1
    outer loop
      vertex -0.130733 -1.49429 -5
      vertex -0.130733 1.49429 -5
      vertex 0 1.5 -5
    endloop
  endfacet
  facet normal 0 0 -1
    outer loop
      vertex -0.260471 -1.47721 -5
      vertex -0.130733 1.49429 -5
      vertex -0.130733 -1.49429 -5
    endloop
  endfacet
  facet normal 0 0 -1
    outer loop
      vertex -0.260471 -1.47721 -5
      vertex -0.260471 1.47721 -5
      vertex -0.130733 1.49429 -5
    endloop
  endfacet
  facet normal 0 0 -1
    outer loop
      vertex -0.388228 -1.44889 -5
      vertex -0.260471 1.47721 -5
      vertex -0.260471 -1.47721 -5
    endloop
  endfacet
  facet normal 0 0 -1
    outer loop
      vertex -0.388228 -1.44889 -5
      vertex -0.388228 1.44889 -5
      vertex -0.260471 1.47721 -5
    endloop
  endfacet
  facet normal 0 0 -1
    outer loop
      vertex -0.51303 -1.40954 -5
      vertex -0.388228 1.44889 -5
      vertex -0.388228 -1.44889 -5
    endloop
  endfacet
  facet normal 0 0 -1
    outer loop
      vertex -0.51303 -1.40954 -5
      vertex -0.51303 1.40954 -5
      vertex -0.388228 1.44889 -5
    endloop
  endfacet
  facet normal 0 0 -1
    outer loop
      vertex -0.633927 -1.35946 -5
      vertex -0.51303 1.40954 -5
      vertex -0.51303 -1.40954 -5
    endloop
  endfacet
  facet normal 0 0 -1
    outer loop
      vertex -0.633927 -1.35946 -5
      vertex -0.633927 1.35946 -5
      vertex -0.51303 1.40954 -5
    endloop
  endfacet
  facet normal 0 0 -1
    outer loop
      vertex -0.633927 -1.35946 -5
      vertex -0.749999 1.29904 -5
      vertex -0.633927 1.35946 -5
    endloop
  endfacet
  facet normal 0 0 -1
    outer loop
      vertex -0.75 -1.29904 -5
      vertex -0.749999 1.29904 -5
      vertex -0.633927 -1.35946 -5
    endloop
  endfacet
  facet normal 0 0 -1
    outer loop
      vertex -0.860364 -1.22873 -5
      vertex -0.749999 1.29904 -5
      vertex -0.75 -1.29904 -5
    endloop
  endfacet
  facet normal 0 0 -1
    outer loop
      vertex -0.860364 -1.22873 -5
      vertex -0.860364 1.22873 -5
      vertex -0.749999 1.29904 -5
    endloop
  endfacet
  facet normal 0 0 -1
    outer loop
      vertex -0.964181 -1.14907 -5
      vertex -0.860364 1.22873 -5
      vertex -0.860364 -1.22873 -5
    endloop
  endfacet
  facet normal 0 0 -1
    outer loop
      vertex -0.964181 -1.14907 -5
      vertex -0.964181 1.14907 -5
      vertex -0.860364 1.22873 -5
    endloop
  endfacet
  facet normal 0 0 -1
    outer loop
      vertex -1.06066 -1.06066 -5
      vertex -0.964181 1.14907 -5
      vertex -0.964181 -1.14907 -5
    endloop
  endfacet
  facet normal 0 0 -1
    outer loop
      vertex -1.06066 -1.06066 -5
      vertex -1.06066 1.06066 -5
      vertex -0.964181 1.14907 -5
    endloop
  endfacet
  facet normal 0 0 -1
    outer loop
      vertex -1.14907 -0.964181 -5
      vertex -1.06066 1.06066 -5
      vertex -1.06066 -1.06066 -5
    endloop
  endfacet
  facet normal 0 0 -1
    outer loop
      vertex -1.14907 -0.964181 -5
      vertex -1.14907 0.964181 -5
      vertex -1.06066 1.06066 -5
    endloop
  endfacet
  facet normal 0 0 -1
    outer loop
      vertex -1.22873 -0.860364 -5
      vertex -1.14907 0.964181 -5
      vertex -1.14907 -0.964181 -5
    endloop
  endfacet
  facet normal 0 0 -1
    outer loop
      vertex -1.22873 -0.860364 -5
      vertex -1.22873 0.860364 -5
      vertex -1.14907 0.964181 -5
    endloop
  endfacet
  facet normal 0 0 -1
    outer loop
      vertex -1.29904 -0.75 -5
      vertex -1.22873 0.860364 -5
      vertex -1.22873 -0.860364 -5
    endloop
  endfacet
  facet normal 0 0 -1
    outer loop
      vertex -1.29904 -0.75 -5
      vertex -1.29904 0.75 -5
      vertex -1.22873 0.860364 -5
    endloop
  endfacet
  facet normal 0 0 -1
    outer loop
      vertex -1.35946 -0.633927 -5
      vertex -1.29904 0.75 -5
      vertex -1.29904 -0.75 -5
    endloop
  endfacet
  facet normal 0 0 -1
    outer loop
      vertex -1.35946 -0.633927 -5
      vertex -1.35946 0.633927 -5
      vertex -1.29904 0.75 -5
    endloop
  endfacet
  facet normal 0 0 -1
    outer loop
      vertex -1.40954 -0.51303 -5
      vertex -1.35946 0.633927 -5
      vertex -1.35946 -0.633927 -5
    endloop
  endfacet
  facet normal 0 0 -1
    outer loop
      vertex -1.40954 -0.51303 -5
      vertex -1.40954 0.51303 -5
      vertex -1.35946 0.633927 -5
    endloop
  endfacet
  facet normal 0 0 -1
    outer loop
      vertex -1.44889 -0.388228 -5
      vertex -1.40954 0.51303 -5
      vertex -1.40954 -0.51303 -5
    endloop
  endfacet
  facet normal 0 0 -1
    outer loop
      vertex -1.44889 -0.388228 -5
      vertex -1.44889 0.388228 -5
      vertex -1.40954 0.51303 -5
    endloop
  endfacet
  facet normal 0 0 -1
    outer loop
      vertex -1.47721 -0.260471 -5
      vertex -1.44889 0.388228 -5
      vertex -1.44889 -0.388228 -5
    endloop
  endfacet
  facet normal 0 0 -1
    outer loop
      vertex -1.47721 -0.260471 -5
      vertex -1.47721 0.260471 -5
      vertex -1.44889 0.388228 -5
    endloop
  endfacet
  facet normal 0 0 -1
    outer loop
      vertex -1.49429 -0.130733 -5
      vertex -1.47721 0.260471 -5
      vertex -1.47721 -0.260471 -5
    endloop
  endfacet
  facet normal 0 0 -1
    outer loop
      vertex -1.49429 -0.130733 -5
      vertex -1.49429 0.130733 -5
      vertex -1.47721 0.260471 -5
    endloop
  endfacet
  facet normal 0 -0 -1
    outer loop
      vertex -1.49429 0.130733 -5
      vertex -1.49429 -0.130733 -5
      vertex -1.5 0 -5
    endloop
  endfacet
  facet normal -0.991445 -0.130526 0
    outer loop
      vertex -1.47721 -0.260471 -5
      vertex -1.49429 -0.130733 5
      vertex -1.49429 -0.130733 -5
    endloop
  endfacet
  facet normal -0.991445 -0.130526 0
    outer loop
      vertex -1.49429 -0.130733 5
      vertex -1.47721 -0.260471 -5
      vertex -1.47721 -0.260471 5
    endloop
  endfacet
  facet normal -0.923879 -0.382684 0
    outer loop
      vertex -1.35946 -0.633927 -5
      vertex -1.40954 -0.51303 5
      vertex -1.40954 -0.51303 -5
    endloop
  endfacet
  facet normal -0.923879 -0.382684 0
    outer loop
      vertex -1.40954 -0.51303 5
      vertex -1.35946 -0.633927 -5
      vertex -1.35946 -0.633927 5
    endloop
  endfacet
  facet normal 0.991445 0.130526 0
    outer loop
      vertex 1.49429 0.130733 5
      vertex 1.47721 0.260471 -5
      vertex 1.47721 0.260471 5
    endloop
  endfacet
  facet normal 0.991445 0.130526 0
    outer loop
      vertex 1.47721 0.260471 -5
      vertex 1.49429 0.130733 5
      vertex 1.49429 0.130733 -5
    endloop
  endfacet
  facet normal 0.953717 0.300704 0
    outer loop
      vertex 1.44889 0.388228 5
      vertex 1.40954 0.51303 -5
      vertex 1.40954 0.51303 5
    endloop
  endfacet
  facet normal 0.953717 0.300704 0
    outer loop
      vertex 1.40954 0.51303 -5
      vertex 1.44889 0.388228 5
      vertex 1.44889 0.388228 -5
    endloop
  endfacet
  facet normal 0.130526 0.991445 -0
    outer loop
      vertex 0.260471 1.47721 -5
      vertex 0.130733 1.49429 5
      vertex 0.260471 1.47721 5
    endloop
  endfacet
  facet normal 0.130526 0.991445 0
    outer loop
      vertex 0.130733 1.49429 5
      vertex 0.260471 1.47721 -5
      vertex 0.130733 1.49429 -5
    endloop
  endfacet
  facet normal -0.991445 0.130526 0
    outer loop
      vertex -1.49429 0.130733 -5
      vertex -1.47721 0.260471 5
      vertex -1.47721 0.260471 -5
    endloop
  endfacet
  facet normal -0.991445 0.130526 0
    outer loop
      vertex -1.47721 0.260471 5
      vertex -1.49429 0.130733 -5
      vertex -1.49429 0.130733 5
    endloop
  endfacet
  facet normal -0.537302 0.84339 0
    outer loop
      vertex -0.749999 1.29904 -5
      vertex -0.860364 1.22873 5
      vertex -0.749999 1.29904 5
    endloop
  endfacet
  facet normal -0.537302 0.84339 0
    outer loop
      vertex -0.860364 1.22873 5
      vertex -0.749999 1.29904 -5
      vertex -0.860364 1.22873 -5
    endloop
  endfacet
  facet normal -0.60876 0.793354 0
    outer loop
      vertex -0.860364 1.22873 -5
      vertex -0.964181 1.14907 5
      vertex -0.860364 1.22873 5
    endloop
  endfacet
  facet normal -0.60876 0.793354 0
    outer loop
      vertex -0.964181 1.14907 5
      vertex -0.860364 1.22873 -5
      vertex -0.964181 1.14907 -5
    endloop
  endfacet
  facet normal 0.0436251 -0.999048 0
    outer loop
      vertex 0 -1.5 -5
      vertex 0.130733 -1.49429 5
      vertex 0 -1.5 5
    endloop
  endfacet
  facet normal 0.0436251 -0.999048 0
    outer loop
      vertex 0.130733 -1.49429 5
      vertex 0 -1.5 -5
      vertex 0.130733 -1.49429 -5
    endloop
  endfacet
  facet normal 0.953717 -0.300704 0
    outer loop
      vertex 1.40954 -0.51303 5
      vertex 1.44889 -0.388228 -5
      vertex 1.44889 -0.388228 5
    endloop
  endfacet
  facet normal 0.953717 -0.300704 0
    outer loop
      vertex 1.44889 -0.388228 -5
      vertex 1.40954 -0.51303 5
      vertex 1.40954 -0.51303 -5
    endloop
  endfacet
  facet normal 0.991445 -0.130526 0
    outer loop
      vertex 1.47721 -0.260471 5
      vertex 1.49429 -0.130733 -5
      vertex 1.49429 -0.130733 5
    endloop
  endfacet
  facet normal 0.991445 -0.130526 0
    outer loop
      vertex 1.49429 -0.130733 -5
      vertex 1.47721 -0.260471 5
      vertex 1.47721 -0.260471 -5
    endloop
  endfacet
  facet normal 0.976296 -0.21644 0
    outer loop
      vertex 1.44889 -0.388228 5
      vertex 1.47721 -0.260471 -5
      vertex 1.47721 -0.260471 5
    endloop
  endfacet
  facet normal 0.976296 -0.21644 0
    outer loop
      vertex 1.47721 -0.260471 -5
      vertex 1.44889 -0.388228 5
      vertex 1.44889 -0.388228 -5
    endloop
  endfacet
  facet normal 0.130526 -0.991445 0
    outer loop
      vertex 0.130733 -1.49429 -5
      vertex 0.260471 -1.47721 5
      vertex 0.130733 -1.49429 5
    endloop
  endfacet
  facet normal 0.130526 -0.991445 0
    outer loop
      vertex 0.260471 -1.47721 5
      vertex 0.130733 -1.49429 -5
      vertex 0.260471 -1.47721 -5
    endloop
  endfacet
  facet normal 0.382684 -0.923879 0
    outer loop
      vertex 0.51303 -1.40954 -5
      vertex 0.633927 -1.35946 5
      vertex 0.51303 -1.40954 5
    endloop
  endfacet
  facet normal 0.382684 -0.923879 0
    outer loop
      vertex 0.633927 -1.35946 5
      vertex 0.51303 -1.40954 -5
      vertex 0.633927 -1.35946 -5
    endloop
  endfacet
  facet normal 0.737276 -0.675592 0
    outer loop
      vertex 1.06066 -1.06066 5
      vertex 1.14907 -0.964181 -5
      vertex 1.14907 -0.964181 5
    endloop
  endfacet
  facet normal 0.737276 -0.675592 0
    outer loop
      vertex 1.14907 -0.964181 -5
      vertex 1.06066 -1.06066 5
      vertex 1.06066 -1.06066 -5
    endloop
  endfacet
  facet normal 0.537302 -0.84339 0
    outer loop
      vertex 0.749999 -1.29904 -5
      vertex 0.860364 -1.22873 5
      vertex 0.749999 -1.29904 5
    endloop
  endfacet
  facet normal 0.537302 -0.84339 0
    outer loop
      vertex 0.860364 -1.22873 5
      vertex 0.749999 -1.29904 -5
      vertex 0.860364 -1.22873 -5
    endloop
  endfacet
  facet normal 0.923879 -0.382684 0
    outer loop
      vertex 1.35946 -0.633927 5
      vertex 1.40954 -0.51303 -5
      vertex 1.40954 -0.51303 5
    endloop
  endfacet
  facet normal 0.923879 -0.382684 0
    outer loop
      vertex 1.40954 -0.51303 -5
      vertex 1.35946 -0.633927 5
      vertex 1.35946 -0.633927 -5
    endloop
  endfacet
  facet normal 0.84339 -0.537302 0
    outer loop
      vertex 1.22873 -0.860364 5
      vertex 1.29904 -0.749999 -5
      vertex 1.29904 -0.749999 5
    endloop
  endfacet
  facet normal 0.84339 -0.537302 0
    outer loop
      vertex 1.29904 -0.749999 -5
      vertex 1.22873 -0.860364 5
      vertex 1.22873 -0.860364 -5
    endloop
  endfacet
  facet normal -0.21644 -0.976296 0
    outer loop
      vertex -0.388228 -1.44889 -5
      vertex -0.260471 -1.47721 5
      vertex -0.388228 -1.44889 5
    endloop
  endfacet
  facet normal -0.21644 -0.976296 -0
    outer loop
      vertex -0.260471 -1.47721 5
      vertex -0.388228 -1.44889 -5
      vertex -0.260471 -1.47721 -5
    endloop
  endfacet
  facet normal -0.60876 -0.793354 0
    outer loop
      vertex -0.964181 -1.14907 -5
      vertex -0.860364 -1.22873 5
      vertex -0.964181 -1.14907 5
    endloop
  endfacet
  facet normal -0.60876 -0.793354 -0
    outer loop
      vertex -0.860364 -1.22873 5
      vertex -0.964181 -1.14907 -5
      vertex -0.860364 -1.22873 -5
    endloop
  endfacet
  facet normal -0.887013 -0.461744 0
    outer loop
      vertex -1.29904 -0.75 -5
      vertex -1.35946 -0.633927 5
      vertex -1.35946 -0.633927 -5
    endloop
  endfacet
  facet normal -0.887013 -0.461744 0
    outer loop
      vertex -1.35946 -0.633927 5
      vertex -1.29904 -0.75 -5
      vertex -1.29904 -0.75 5
    endloop
  endfacet
  facet normal -0.737276 -0.675592 0
    outer loop
      vertex -1.06066 -1.06066 -5
      vertex -1.14907 -0.964181 5
      vertex -1.14907 -0.964181 -5
    endloop
  endfacet
  facet normal -0.737276 -0.675592 0
    outer loop
      vertex -1.14907 -0.964181 5
      vertex -1.06066 -1.06066 -5
      vertex -1.06066 -1.06066 5
    endloop
  endfacet
  facet normal -0.793354 0.60876 0
    outer loop
      vertex -1.22873 0.860364 -5
      vertex -1.14907 0.964181 5
      vertex -1.14907 0.964181 -5
    endloop
  endfacet
  facet normal -0.793354 0.60876 0
    outer loop
      vertex -1.14907 0.964181 5
      vertex -1.22873 0.860364 -5
      vertex -1.22873 0.860364 5
    endloop
  endfacet
  facet normal 0.999048 -0.0436251 0
    outer loop
      vertex 1.49429 -0.130733 5
      vertex 1.5 0 -5
      vertex 1.5 0 5
    endloop
  endfacet
  facet normal 0.999048 -0.0436251 0
    outer loop
      vertex 1.5 0 -5
      vertex 1.49429 -0.130733 5
      vertex 1.49429 -0.130733 -5
    endloop
  endfacet
  facet normal -0.793354 -0.60876 0
    outer loop
      vertex -1.14907 -0.964181 -5
      vertex -1.22873 -0.860364 5
      vertex -1.22873 -0.860364 -5
    endloop
  endfacet
  facet normal -0.793354 -0.60876 0
    outer loop
      vertex -1.22873 -0.860364 5
      vertex -1.14907 -0.964181 -5
      vertex -1.14907 -0.964181 5
    endloop
  endfacet
endsolid OpenSCAD_Model
