solid OpenSCAD_Model
  facet normal 0.60876 0.793354 -0
    outer loop
      vertex 0.964181 1.14907 -5
      vertex 0.860364 1.22873 5
      vertex 0.964181 1.14907 5
    endloop
  endfacet
  facet normal 0.60876 0.793354 0
    outer loop
      vertex 0.860364 1.22873 5
      vertex 0.964181 1.14907 -5
      vertex 0.860364 1.22873 -5
    endloop
  endfacet
  facet normal -0.300704 0.953717 0
    outer loop
      vertex -0.388228 1.44889 -5
      vertex -0.51303 1.40954 5
      vertex -0.388228 1.44889 5
    endloop
  endfacet
  facet normal -0.300704 0.953717 0
    outer loop
      vertex -0.51303 1.40954 5
      vertex -0.388228 1.44889 -5
      vertex -0.51303 1.40954 -5
    endloop
  endfacet
  facet normal -0.923879 0.382684 0
    outer loop
      vertex -1.40954 0.51303 -5
      vertex -1.35946 0.633927 5
      vertex -1.35946 0.633927 -5
    endloop
  endfacet
  facet normal -0.923879 0.382684 0
    outer loop
      vertex -1.35946 0.633927 5
      vertex -1.40954 0.51303 -5
      vertex -1.40954 0.51303 5
    endloop
  endfacet
  facet normal 0.887011 0.461747 0
    outer loop
      vertex 1.35946 0.633927 5
      vertex 1.29904 0.749999 -5
      vertex 1.29904 0.749999 5
    endloop
  endfacet
  facet normal 0.887011 0.461747 0
    outer loop
      vertex 1.29904 0.749999 -5
      vertex 1.35946 0.633927 5
      vertex 1.35946 0.633927 -5
    endloop
  endfacet
  facet normal 0.84339 0.537302 0
    outer loop
      vertex 1.29904 0.749999 5
      vertex 1.22873 0.860364 -5
      vertex 1.22873 0.860364 5
    endloop
  endfacet
  facet normal 0.84339 0.537302 0
    outer loop
      vertex 1.22873 0.860364 -5
      vertex 1.29904 0.749999 5
      vertex 1.29904 0.749999 -5
    endloop
  endfacet
  facet normal 0.382684 0.923879 -0
    outer loop
      vertex 0.633927 1.35946 -5
      vertex 0.51303 1.40954 5
      vertex 0.633927 1.35946 5
    endloop
  endfacet
  facet normal 0.382684 0.923879 0
    outer loop
      vertex 0.51303 1.40954 5
      vertex 0.633927 1.35946 -5
      vertex 0.51303 1.40954 -5
    endloop
  endfacet
  facet normal 0.130526 0.991445 -0
    outer loop
      vertex 0.260471 1.47721 -5
      vertex 0.130733 1.49429 5
      vertex 0.260471 1.47721 5
    endloop
  endfacet
  facet normal 0.130526 0.991445 0
    outer loop
      vertex 0.130733 1.49429 5
      vertex 0.260471 1.47721 -5
      vertex 0.130733 1.49429 -5
    endloop
  endfacet
  facet normal -0.991445 0.130526 0
    outer loop
      vertex -1.49429 0.130733 -5
      vertex -1.47721 0.260471 5
      vertex -1.47721 0.260471 -5
    endloop
  endfacet
  facet normal -0.991445 0.130526 0
    outer loop
      vertex -1.47721 0.260471 5
      vertex -1.49429 0.130733 -5
      vertex -1.49429 0.130733 5
    endloop
  endfacet
  facet normal -0.737276 0.675592 0
    outer loop
      vertex -1.14907 0.964181 -5
      vertex -1.06066 1.06066 5
      vertex -1.06066 1.06066 -5
    endloop
  endfacet
  facet normal -0.737276 0.675592 0
    outer loop
      vertex -1.06066 1.06066 5
      vertex -1.14907 0.964181 -5
      vertex -1.14907 0.964181 5
    endloop
  endfacet
  facet normal -0.130526 0.991445 0
    outer loop
      vertex -0.130733 1.49429 -5
      vertex -0.260471 1.47721 5
      vertex -0.130733 1.49429 5
    endloop
  endfacet
  facet normal -0.130526 0.991445 0
    outer loop
      vertex -0.260471 1.47721 5
      vertex -0.130733 1.49429 -5
      vertex -0.260471 1.47721 -5
    endloop
  endfacet
  facet normal 0.999048 -0.0436251 0
    outer loop
      vertex 1.49429 -0.130733 5
      vertex 1.5 0 -5
      vertex 1.5 0 5
    endloop
  endfacet
  facet normal 0.999048 -0.0436251 0
    outer loop
      vertex 1.5 0 -5
      vertex 1.49429 -0.130733 5
      vertex 1.49429 -0.130733 -5
    endloop
  endfacet
  facet normal 0.793354 -0.60876 0
    outer loop
      vertex 1.14907 -0.964181 5
      vertex 1.22873 -0.860364 -5
      vertex 1.22873 -0.860364 5
    endloop
  endfacet
  facet normal 0.793354 -0.60876 0
    outer loop
      vertex 1.22873 -0.860364 -5
      vertex 1.14907 -0.964181 5
      vertex 1.14907 -0.964181 -5
    endloop
  endfacet
  facet normal -0.130526 -0.991445 0
    outer loop
      vertex -0.260471 -1.47721 -5
      vertex -0.130733 -1.49429 5
      vertex -0.260471 -1.47721 5
    endloop
  endfacet
  facet normal -0.130526 -0.991445 -0
    outer loop
      vertex -0.130733 -1.49429 5
      vertex -0.260471 -1.47721 -5
      vertex -0.130733 -1.49429 -5
    endloop
  endfacet
  facet normal -0.675592 -0.737276 0
    outer loop
      vertex -1.06066 -1.06066 -5
      vertex -0.964181 -1.14907 5
      vertex -1.06066 -1.06066 5
    endloop
  endfacet
  facet normal -0.675592 -0.737276 -0
    outer loop
      vertex -0.964181 -1.14907 5
      vertex -1.06066 -1.06066 -5
      vertex -0.964181 -1.14907 -5
    endloop
  endfacet
  facet normal 0.991445 0.130526 0
    outer loop
      vertex 1.49429 0.130733 5
      vertex 1.47721 0.260471 -5
      vertex 1.47721 0.260471 5
    endloop
  endfacet
  facet normal 0.991445 0.130526 0
    outer loop
      vertex 1.47721 0.260471 -5
      vertex 1.49429 0.130733 5
      vertex 1.49429 0.130733 -5
    endloop
  endfacet
  facet normal 0.953717 0.300704 0
    outer loop
      vertex 1.44889 0.388228 5
      vertex 1.40954 0.51303 -5
      vertex 1.40954 0.51303 5
    endloop
  endfacet
  facet normal 0.953717 0.300704 0
    outer loop
      vertex 1.40954 0.51303 -5
      vertex 1.44889 0.388228 5
      vertex 1.44889 0.388228 -5
    endloop
  endfacet
  facet normal 0.923879 0.382684 0
    outer loop
      vertex 1.40954 0.51303 5
      vertex 1.35946 0.633927 -5
      vertex 1.35946 0.633927 5
    endloop
  endfacet
  facet normal 0.923879 0.382684 0
    outer loop
      vertex 1.35946 0.633927 -5
      vertex 1.40954 0.51303 5
      vertex 1.40954 0.51303 -5
    endloop
  endfacet
  facet normal 0.737276 0.675592 0
    outer loop
      vertex 1.14907 0.964181 5
      vertex 1.06066 1.06066 -5
      vertex 1.06066 1.06066 5
    endloop
  endfacet
  facet normal 0.737276 0.675592 0
    outer loop
      vertex 1.06066 1.06066 -5
      vertex 1.14907 0.964181 5
      vertex 1.14907 0.964181 -5
    endloop
  endfacet
  facet normal 0.793354 0.60876 0
    outer loop
      vertex 1.22873 0.860364 5
      vertex 1.14907 0.964181 -5
      vertex 1.14907 0.964181 5
    endloop
  endfacet
  facet normal 0.793354 0.60876 0
    outer loop
      vertex 1.14907 0.964181 -5
      vertex 1.22873 0.860364 5
      vertex 1.22873 0.860364 -5
    endloop
  endfacet
  facet normal 0.675592 0.737276 -0
    outer loop
      vertex 1.06066 1.06066 -5
      vertex 0.964181 1.14907 5
      vertex 1.06066 1.06066 5
    endloop
  endfacet
  facet normal 0.675592 0.737276 0
    outer loop
      vertex 0.964181 1.14907 5
      vertex 1.06066 1.06066 -5
      vertex 0.964181 1.14907 -5
    endloop
  endfacet
  facet normal 0.537305 0.843388 -0
    outer loop
      vertex 0.860364 1.22873 -5
      vertex 0.75 1.29904 5
      vertex 0.860364 1.22873 5
    endloop
  endfacet
  facet normal 0.537305 0.843388 0
    outer loop
      vertex 0.75 1.29904 5
      vertex 0.860364 1.22873 -5
      vertex 0.75 1.29904 -5
    endloop
  endfacet
  facet normal 0.0436251 0.999048 -0
    outer loop
      vertex 0.130733 1.49429 -5
      vertex 0 1.5 5
      vertex 0.130733 1.49429 5
    endloop
  endfacet
  facet normal 0.0436251 0.999048 0
    outer loop
      vertex 0 1.5 5
      vertex 0.130733 1.49429 -5
      vertex 0 1.5 -5
    endloop
  endfacet
  facet normal 0.461744 0.887013 -0
    outer loop
      vertex 0.75 1.29904 -5
      vertex 0.633927 1.35946 5
      vertex 0.75 1.29904 5
    endloop
  endfacet
  facet normal 0.461744 0.887013 0
    outer loop
      vertex 0.633927 1.35946 5
      vertex 0.75 1.29904 -5
      vertex 0.633927 1.35946 -5
    endloop
  endfacet
  facet normal 0.300704 0.953717 -0
    outer loop
      vertex 0.51303 1.40954 -5
      vertex 0.388228 1.44889 5
      vertex 0.51303 1.40954 5
    endloop
  endfacet
  facet normal 0.300704 0.953717 0
    outer loop
      vertex 0.388228 1.44889 5
      vertex 0.51303 1.40954 -5
      vertex 0.388228 1.44889 -5
    endloop
  endfacet
  facet normal 0.21644 0.976296 -0
    outer loop
      vertex 0.388228 1.44889 -5
      vertex 0.260471 1.47721 5
      vertex 0.388228 1.44889 5
    endloop
  endfacet
  facet normal 0.21644 0.976296 0
    outer loop
      vertex 0.260471 1.47721 5
      vertex 0.388228 1.44889 -5
      vertex 0.260471 1.47721 -5
    endloop
  endfacet
  facet normal -0.999048 0.0436251 0
    outer loop
      vertex -1.5 0 -5
      vertex -1.49429 0.130733 5
      vertex -1.49429 0.130733 -5
    endloop
  endfacet
  facet normal -0.999048 0.0436251 0
    outer loop
      vertex -1.49429 0.130733 5
      vertex -1.5 0 -5
      vertex -1.5 0 5
    endloop
  endfacet
  facet normal -0.953717 0.300704 0
    outer loop
      vertex -1.44889 0.388228 -5
      vertex -1.40954 0.51303 5
      vertex -1.40954 0.51303 -5
    endloop
  endfacet
  facet normal -0.953717 0.300704 0
    outer loop
      vertex -1.40954 0.51303 5
      vertex -1.44889 0.388228 -5
      vertex -1.44889 0.388228 5
    endloop
  endfacet
  facet normal -0.976296 0.21644 0
    outer loop
      vertex -1.47721 0.260471 -5
      vertex -1.44889 0.388228 5
      vertex -1.44889 0.388228 -5
    endloop
  endfacet
  facet normal -0.976296 0.21644 0
    outer loop
      vertex -1.44889 0.388228 5
      vertex -1.47721 0.260471 -5
      vertex -1.47721 0.260471 5
    endloop
  endfacet
  facet normal -0.887013 0.461744 0
    outer loop
      vertex -1.35946 0.633927 -5
      vertex -1.29904 0.75 5
      vertex -1.29904 0.75 -5
    endloop
  endfacet
  facet normal -0.887013 0.461744 0
    outer loop
      vertex -1.29904 0.75 5
      vertex -1.35946 0.633927 -5
      vertex -1.35946 0.633927 5
    endloop
  endfacet
  facet normal -0.843388 0.537305 0
    outer loop
      vertex -1.29904 0.75 -5
      vertex -1.22873 0.860364 5
      vertex -1.22873 0.860364 -5
    endloop
  endfacet
  facet normal -0.843388 0.537305 0
    outer loop
      vertex -1.22873 0.860364 5
      vertex -1.29904 0.75 -5
      vertex -1.29904 0.75 5
    endloop
  endfacet
  facet normal -0.21644 0.976296 0
    outer loop
      vertex -0.260471 1.47721 -5
      vertex -0.388228 1.44889 5
      vertex -0.260471 1.47721 5
    endloop
  endfacet
  facet normal -0.21644 0.976296 0
    outer loop
      vertex -0.388228 1.44889 5
      vertex -0.260471 1.47721 -5
      vertex -0.388228 1.44889 -5
    endloop
  endfacet
  facet normal -0.0436251 0.999048 0
    outer loop
      vertex 0 1.5 -5
      vertex -0.130733 1.49429 5
      vertex 0 1.5 5
    endloop
  endfacet
  facet normal -0.0436251 0.999048 0
    outer loop
      vertex -0.130733 1.49429 5
      vertex 0 1.5 -5
      vertex -0.130733 1.49429 -5
    endloop
  endfacet
  facet normal -0.461747 0.887011 0
    outer loop
      vertex -0.633927 1.35946 -5
      vertex -0.749999 1.29904 5
      vertex -0.633927 1.35946 5
    endloop
  endfacet
  facet normal -0.461747 0.887011 0
    outer loop
      vertex -0.749999 1.29904 5
      vertex -0.633927 1.35946 -5
      vertex -0.749999 1.29904 -5
    endloop
  endfacet
  facet normal -0.382684 0.923879 0
    outer loop
      vertex -0.51303 1.40954 -5
      vertex -0.633927 1.35946 5
      vertex -0.51303 1.40954 5
    endloop
  endfacet
  facet normal -0.382684 0.923879 0
    outer loop
      vertex -0.633927 1.35946 5
      vertex -0.51303 1.40954 -5
      vertex -0.633927 1.35946 -5
    endloop
  endfacet
  facet normal -0.675592 0.737276 0
    outer loop
      vertex -0.964181 1.14907 -5
      vertex -1.06066 1.06066 5
      vertex -0.964181 1.14907 5
    endloop
  endfacet
  facet normal -0.675592 0.737276 0
    outer loop
      vertex -1.06066 1.06066 5
      vertex -0.964181 1.14907 -5
      vertex -1.06066 1.06066 -5
    endloop
  endfacet
  facet normal 0.999048 0.0436251 0
    outer loop
      vertex 1.5 0 5
      vertex 1.49429 0.130733 -5
      vertex 1.49429 0.130733 5
    endloop
  endfacet
  facet normal 0.999048 0.0436251 0
    outer loop
      vertex 1.49429 0.130733 -5
      vertex 1.5 0 5
      vertex 1.5 0 -5
    endloop
  endfacet
  facet normal 0.21644 -0.976296 0
    outer loop
      vertex 0.260471 -1.47721 -5
      vertex 0.388228 -1.44889 5
      vertex 0.260471 -1.47721 5
    endloop
  endfacet
  facet normal 0.21644 -0.976296 0
    outer loop
      vertex 0.388228 -1.44889 5
      vertex 0.260471 -1.47721 -5
      vertex 0.388228 -1.44889 -5
    endloop
  endfacet
  facet normal 0.300704 -0.953717 0
    outer loop
      vertex 0.388228 -1.44889 -5
      vertex 0.51303 -1.40954 5
      vertex 0.388228 -1.44889 5
    endloop
  endfacet
  facet normal 0.300704 -0.953717 0
    outer loop
      vertex 0.51303 -1.40954 5
      vertex 0.388228 -1.44889 -5
      vertex 0.51303 -1.40954 -5
    endloop
  endfacet
  facet normal 0.675592 -0.737276 0
    outer loop
      vertex 0.964181 -1.14907 -5
      vertex 1.06066 -1.06066 5
      vertex 0.964181 -1.14907 5
    endloop
  endfacet
  facet normal 0.675592 -0.737276 0
    outer loop
      vertex 1.06066 -1.06066 5
      vertex 0.964181 -1.14907 -5
      vertex 1.06066 -1.06066 -5
    endloop
  endfacet
  facet normal 0.461747 -0.887011 0
    outer loop
      vertex 0.633927 -1.35946 -5
      vertex 0.749999 -1.29904 5
      vertex 0.633927 -1.35946 5
    endloop
  endfacet
  facet normal 0.461747 -0.887011 0
    outer loop
      vertex 0.749999 -1.29904 5
      vertex 0.633927 -1.35946 -5
      vertex 0.749999 -1.29904 -5
    endloop
  endfacet
  facet normal 0.887011 -0.461747 0
    outer loop
      vertex 1.29904 -0.749999 5
      vertex 1.35946 -0.633927 -5
      vertex 1.35946 -0.633927 5
    endloop
  endfacet
  facet normal 0.887011 -0.461747 0
    outer loop
      vertex 1.35946 -0.633927 -5
      vertex 1.29904 -0.749999 5
      vertex 1.29904 -0.749999 -5
    endloop
  endfacet
  facet normal -0.0436251 -0.999048 0
    outer loop
      vertex -0.130733 -1.49429 -5
      vertex 0 -1.5 5
      vertex -0.130733 -1.49429 5
    endloop
  endfacet
  facet normal -0.0436251 -0.999048 -0
    outer loop
      vertex 0 -1.5 5
      vertex -0.130733 -1.49429 -5
      vertex 0 -1.5 -5
    endloop
  endfacet
  facet normal -0.300704 -0.953717 0
    outer loop
      vertex -0.51303 -1.40954 -5
      vertex -0.388228 -1.44889 5
      vertex -0.51303 -1.40954 5
    endloop
  endfacet
  facet normal -0.300704 -0.953717 -0
    outer loop
      vertex -0.388228 -1.44889 5
      vertex -0.51303 -1.40954 -5
      vertex -0.388228 -1.44889 -5
    endloop
  endfacet
  facet normal -0.461744 -0.887013 0
    outer loop
      vertex -0.75 -1.29904 -5
      vertex -0.633927 -1.35946 5
      vertex -0.75 -1.29904 5
    endloop
  endfacet
  facet normal -0.461744 -0.887013 -0
    outer loop
      vertex -0.633927 -1.35946 5
      vertex -0.75 -1.29904 -5
      vertex -0.633927 -1.35946 -5
    endloop
  endfacet
  facet normal -0.537305 -0.843388 0
    outer loop
      vertex -0.860364 -1.22873 -5
      vertex -0.75 -1.29904 5
      vertex -0.860364 -1.22873 5
    endloop
  endfacet
  facet normal -0.537305 -0.843388 -0
    outer loop
      vertex -0.75 -1.29904 5
      vertex -0.860364 -1.22873 -5
      vertex -0.75 -1.29904 -5
    endloop
  endfacet
  facet normal -0.976296 -0.21644 0
    outer loop
      vertex -1.44889 -0.388228 -5
      vertex -1.47721 -0.260471 5
      vertex -1.47721 -0.260471 -5
    endloop
  endfacet
  facet normal -0.976296 -0.21644 0
    outer loop
      vertex -1.47721 -0.260471 5
      vertex -1.44889 -0.388228 -5
      vertex -1.44889 -0.388228 5
    endloop
  endfacet
  facet normal -0.999048 -0.0436251 0
    outer loop
      vertex -1.49429 -0.130733 -5
      vertex -1.5 0 5
      vertex -1.5 0 -5
    endloop
  endfacet
  facet normal -0.999048 -0.0436251 0
    outer loop
      vertex -1.5 0 5
      vertex -1.49429 -0.130733 -5
      vertex -1.49429 -0.130733 5
    endloop
  endfacet
  facet normal 0 0 -1
    outer loop
      vertex 1.49429 -0.130733 -5
      vertex 1.49429 0.130733 -5
      vertex 1.5 0 -5
    endloop
  endfacet
  facet normal 0 0 -1
    outer loop
      vertex 1.47721 -0.260471 -5
      vertex 1.49429 0.130733 -5
      vertex 1.49429 -0.130733 -5
    endloop
  endfacet
  facet normal 0 0 -1
    outer loop
      vertex 1.47721 -0.260471 -5
      vertex 1.47721 0.260471 -5
      vertex 1.49429 0.130733 -5
    endloop
  endfacet
  facet normal 0 0 -1
    outer loop
      vertex 1.44889 -0.388228 -5
      vertex 1.47721 0.260471 -5
      vertex 1.47721 -0.260471 -5
    endloop
  endfacet
  facet normal 0 0 -1
    outer loop
      vertex 1.44889 -0.388228 -5
      vertex 1.44889 0.388228 -5
      vertex 1.47721 0.260471 -5
    endloop
  endfacet
  facet normal 0 0 -1
    outer loop
      vertex 1.40954 -0.51303 -5
      vertex 1.44889 0.388228 -5
      vertex 1.44889 -0.388228 -5
    endloop
  endfacet
  facet normal 0 0 -1
    outer loop
      vertex 1.40954 -0.51303 -5
      vertex 1.40954 0.51303 -5
      vertex 1.44889 0.388228 -5
    endloop
  endfacet
  facet normal 0 0 -1
    outer loop
      vertex 1.35946 -0.633927 -5
      vertex 1.40954 0.51303 -5
      vertex 1.40954 -0.51303 -5
    endloop
  endfacet
  facet normal 0 0 -1
    outer loop
      vertex 1.35946 -0.633927 -5
      vertex 1.35946 0.633927 -5
      vertex 1.40954 0.51303 -5
    endloop
  endfacet
  facet normal 0 0 -1
    outer loop
      vertex 1.29904 -0.749999 -5
      vertex 1.35946 0.633927 -5
      vertex 1.35946 -0.633927 -5
    endloop
  endfacet
  facet normal 0 0 -1
    outer loop
      vertex 1.29904 -0.749999 -5
      vertex 1.29904 0.749999 -5
      vertex 1.35946 0.633927 -5
    endloop
  endfacet
  facet normal 0 0 -1
    outer loop
      vertex 1.22873 -0.860364 -5
      vertex 1.29904 0.749999 -5
      vertex 1.29904 -0.749999 -5
    endloop
  endfacet
  facet normal 0 0 -1
    outer loop
      vertex 1.22873 -0.860364 -5
      vertex 1.22873 0.860364 -5
      vertex 1.29904 0.749999 -5
    endloop
  endfacet
  facet normal 0 0 -1
    outer loop
      vertex 1.14907 -0.964181 -5
      vertex 1.22873 0.860364 -5
      vertex 1.22873 -0.860364 -5
    endloop
  endfacet
  facet normal 0 0 -1
    outer loop
      vertex 1.14907 -0.964181 -5
      vertex 1.14907 0.964181 -5
      vertex 1.22873 0.860364 -5
    endloop
  endfacet
  facet normal 0 0 -1
    outer loop
      vertex 1.06066 -1.06066 -5
      vertex 1.14907 0.964181 -5
      vertex 1.14907 -0.964181 -5
    endloop
  endfacet
  facet normal 0 0 -1
    outer loop
      vertex 1.06066 -1.06066 -5
      vertex 1.06066 1.06066 -5
      vertex 1.14907 0.964181 -5
    endloop
  endfacet
  facet normal 0 0 -1
    outer loop
      vertex 0.964181 -1.14907 -5
      vertex 1.06066 1.06066 -5
      vertex 1.06066 -1.06066 -5
    endloop
  endfacet
  facet normal 0 0 -1
    outer loop
      vertex 0.964181 -1.14907 -5
      vertex 0.964181 1.14907 -5
      vertex 1.06066 1.06066 -5
    endloop
  endfacet
  facet normal 0 0 -1
    outer loop
      vertex 0.860364 -1.22873 -5
      vertex 0.964181 1.14907 -5
      vertex 0.964181 -1.14907 -5
    endloop
  endfacet
  facet normal 0 0 -1
    outer loop
      vertex 0.860364 -1.22873 -5
      vertex 0.860364 1.22873 -5
      vertex 0.964181 1.14907 -5
    endloop
  endfacet
  facet normal 0 0 -1
    outer loop
      vertex 0.860364 -1.22873 -5
      vertex 0.75 1.29904 -5
      vertex 0.860364 1.22873 -5
    endloop
  endfacet
  facet normal 0 0 -1
    outer loop
      vertex 0.749999 -1.29904 -5
      vertex 0.75 1.29904 -5
      vertex 0.860364 -1.22873 -5
    endloop
  endfacet
  facet normal 0 0 -1
    outer loop
      vertex 0.633927 -1.35946 -5
      vertex 0.75 1.29904 -5
      vertex 0.749999 -1.29904 -5
    endloop
  endfacet
  facet normal 0 0 -1
    outer loop
      vertex 0.633927 -1.35946 -5
      vertex 0.633927 1.35946 -5
      vertex 0.75 1.29904 -5
    endloop
  endfacet
  facet normal 0 0 -1
    outer loop
      vertex 0.51303 -1.40954 -5
      vertex 0.633927 1.35946 -5
      vertex 0.633927 -1.35946 -5
    endloop
  endfacet
  facet normal 0 0 -1
    outer loop
      vertex 0.51303 -1.40954 -5
      vertex 0.51303 1.40954 -5
      vertex 0.633927 1.35946 -5
    endloop
  endfacet
  facet normal 0 0 -1
    outer loop
      vertex 0.388228 -1.44889 -5
      vertex 0.51303 1.40954 -5
      vertex 0.51303 -1.40954 -5
    endloop
  endfacet
  facet normal 0 0 -1
    outer loop
      vertex 0.388228 -1.44889 -5
      vertex 0.388228 1.44889 -5
      vertex 0.51303 1.40954 -5
    endloop
  endfacet
  facet normal 0 0 -1
    outer loop
      vertex 0.260471 -1.47721 -5
      vertex 0.388228 1.44889 -5
      vertex 0.388228 -1.44889 -5
    endloop
  endfacet
  facet normal 0 0 -1
    outer loop
      vertex 0.260471 -1.47721 -5
      vertex 0.260471 1.47721 -5
      vertex 0.388228 1.44889 -5
    endloop
  endfacet
  facet normal 0 0 -1
    outer loop
      vertex 0.130733 -1.49429 -5
      vertex 0.260471 1.47721 -5
      vertex 0.260471 -1.47721 -5
    endloop
  endfacet
  facet normal 0 0 -1
    outer loop
      vertex 0.130733 -1.49429 -5
      vertex 0.130733 1.49429 -5
      vertex 0.260471 1.47721 -5
    endloop
  endfacet
  facet normal 0 0 -1
    outer loop
      vertex 0 -1.5 -5
      vertex 0.130733 1.49429 -5
      vertex 0.130733 -1.49429 -5
    endloop
  endfacet
  facet normal 0 0 -1
    outer loop
      vertex 0 -1.5 -5
      vertex 0 1.5 -5
      vertex 0.130733 1.49429 -5
    endloop
  endfacet
  facet normal 0 0 -1
    outer loop
      vertex -0.130733 -1.49429 -5
      vertex 0 1.5 -5
      vertex 0 -1.5 -5
    endloop
  endfacet
  facet normal 0 0 -1
    outer loop
      vertex -0.130733 -1.49429 -5
      vertex -0.130733 1.49429 -5
      vertex 0 1.5 -5
    endloop
  endfacet
  facet normal 0 0 -1
    outer loop
      vertex -0.260471 -1.47721 -5
      vertex -0.130733 1.49429 -5
      vertex -0.130733 -1.49429 -5
    endloop
  endfacet
  facet normal 0 0 -1
    outer loop
      vertex -0.260471 -1.47721 -5
      vertex -0.260471 1.47721 -5
      vertex -0.130733 1.49429 -5
    endloop
  endfacet
  facet normal 0 0 -1
    outer loop
      vertex -0.388228 -1.44889 -5
      vertex -0.260471 1.47721 -5
      vertex -0.260471 -1.47721 -5
    endloop
  endfacet
  facet normal 0 0 -1
    outer loop
      vertex -0.388228 -1.44889 -5
      vertex -0.388228 1.44889 -5
      vertex -0.260471 1.47721 -5
    endloop
  endfacet
  facet normal 0 0 -1
    outer loop
      vertex -0.51303 -1.40954 -5
      vertex -0.388228 1.44889 -5
      vertex -0.388228 -1.44889 -5
    endloop
  endfacet
  facet normal 0 0 -1
    outer loop
      vertex -0.51303 -1.40954 -5
      vertex -0.51303 1.40954 -5
      vertex -0.388228 1.44889 -5
    endloop
  endfacet
  facet normal 0 0 -1
    outer loop
      vertex -0.633927 -1.35946 -5
      vertex -0.51303 1.40954 -5
      vertex -0.51303 -1.40954 -5
    endloop
  endfacet
  facet normal 0 0 -1
    outer loop
      vertex -0.633927 -1.35946 -5
      vertex -0.633927 1.35946 -5
      vertex -0.51303 1.40954 -5
    endloop
  endfacet
  facet normal 0 0 -1
    outer loop
      vertex -0.633927 -1.35946 -5
      vertex -0.749999 1.29904 -5
      vertex -0.633927 1.35946 -5
    endloop
  endfacet
  facet normal 0 0 -1
    outer loop
      vertex -0.75 -1.29904 -5
      vertex -0.749999 1.29904 -5
      vertex -0.633927 -1.35946 -5
    endloop
  endfacet
  facet normal 0 0 -1
    outer loop
      vertex -0.860364 -1.22873 -5
      vertex -0.749999 1.29904 -5
      vertex -0.75 -1.29904 -5
    endloop
  endfacet
  facet normal 0 0 -1
    outer loop
      vertex -0.860364 -1.22873 -5
      vertex -0.860364 1.22873 -5
      vertex -0.749999 1.29904 -5
    endloop
  endfacet
  facet normal 0 0 -1
    outer loop
      vertex -0.964181 -1.14907 -5
      vertex -0.860364 1.22873 -5
      vertex -0.860364 -1.22873 -5
    endloop
  endfacet
  facet normal 0 0 -1
    outer loop
      vertex -0.964181 -1.14907 -5
      vertex -0.964181 1.14907 -5
      vertex -0.860364 1.22873 -5
    endloop
  endfacet
  facet normal 0 0 -1
    outer loop
      vertex -1.06066 -1.06066 -5
      vertex -0.964181 1.14907 -5
      vertex -0.964181 -1.14907 -5
    endloop
  endfacet
  facet normal 0 0 -1
    outer loop
      vertex -1.06066 -1.06066 -5
      vertex -1.06066 1.06066 -5
      vertex -0.964181 1.14907 -5
    endloop
  endfacet
  facet normal 0 0 -1
    outer loop
      vertex -1.14907 -0.964181 -5
      vertex -1.06066 1.06066 -5
      vertex -1.06066 -1.06066 -5
    endloop
  endfacet
  facet normal 0 0 -1
    outer loop
      vertex -1.14907 -0.964181 -5
      vertex -1.14907 0.964181 -5
      vertex -1.06066 1.06066 -5
    endloop
  endfacet
  facet normal 0 0 -1
    outer loop
      vertex -1.22873 -0.860364 -5
      vertex -1.14907 0.964181 -5
      vertex -1.14907 -0.964181 -5
    endloop
  endfacet
  facet normal 0 0 -1
    outer loop
      vertex -1.22873 -0.860364 -5
      vertex -1.22873 0.860364 -5
      vertex -1.14907 0.964181 -5
    endloop
  endfacet
  facet normal 0 0 -1
    outer loop
      vertex -1.29904 -0.75 -5
      vertex -1.22873 0.860364 -5
      vertex -1.22873 -0.860364 -5
    endloop
  endfacet
  facet normal 0 0 -1
    outer loop
      vertex -1.29904 -0.75 -5
      vertex -1.29904 0.75 -5
      vertex -1.22873 0.860364 -5
    endloop
  endfacet
  facet normal 0 0 -1
    outer loop
      vertex -1.35946 -0.633927 -5
      vertex -1.29904 0.75 -5
      vertex -1.29904 -0.75 -5
    endloop
  endfacet
  facet normal 0 0 -1
    outer loop
      vertex -1.35946 -0.633927 -5
      vertex -1.35946 0.633927 -5
      vertex -1.29904 0.75 -5
    endloop
  endfacet
  facet normal 0 0 -1
    outer loop
      vertex -1.40954 -0.51303 -5
      vertex -1.35946 0.633927 -5
      vertex -1.35946 -0.633927 -5
    endloop
  endfacet
  facet normal 0 0 -1
    outer loop
      vertex -1.40954 -0.51303 -5
      vertex -1.40954 0.51303 -5
      vertex -1.35946 0.633927 -5
    endloop
  endfacet
  facet normal 0 0 -1
    outer loop
      vertex -1.44889 -0.388228 -5
      vertex -1.40954 0.51303 -5
      vertex -1.40954 -0.51303 -5
    endloop
  endfacet
  facet normal 0 0 -1
    outer loop
      vertex -1.44889 -0.388228 -5
      vertex -1.44889 0.388228 -5
      vertex -1.40954 0.51303 -5
    endloop
  endfacet
  facet normal 0 0 -1
    outer loop
      vertex -1.47721 -0.260471 -5
      vertex -1.44889 0.388228 -5
      vertex -1.44889 -0.388228 -5
    endloop
  endfacet
  facet normal 0 0 -1
    outer loop
      vertex -1.47721 -0.260471 -5
      vertex -1.47721 0.260471 -5
      vertex -1.44889 0.388228 -5
    endloop
  endfacet
  facet normal 0 0 -1
    outer loop
      vertex -1.49429 -0.130733 -5
      vertex -1.47721 0.260471 -5
      vertex -1.47721 -0.260471 -5
    endloop
  endfacet
  facet normal 0 0 -1
    outer loop
      vertex -1.49429 -0.130733 -5
      vertex -1.49429 0.130733 -5
      vertex -1.47721 0.260471 -5
    endloop
  endfacet
  facet normal 0 -0 -1
    outer loop
      vertex -1.49429 0.130733 -5
      vertex -1.49429 -0.130733 -5
      vertex -1.5 0 -5
    endloop
  endfacet
  facet normal -0.923879 -0.382684 0
    outer loop
      vertex -1.35946 -0.633927 -5
      vertex -1.40954 -0.51303 5
      vertex -1.40954 -0.51303 -5
    endloop
  endfacet
  facet normal -0.923879 -0.382684 0
    outer loop
      vertex -1.40954 -0.51303 5
      vertex -1.35946 -0.633927 -5
      vertex -1.35946 -0.633927 5
    endloop
  endfacet
  facet normal -0.737276 -0.675592 0
    outer loop
      vertex -1.06066 -1.06066 -5
      vertex -1.14907 -0.964181 5
      vertex -1.14907 -0.964181 -5
    endloop
  endfacet
  facet normal -0.737276 -0.675592 0
    outer loop
      vertex -1.14907 -0.964181 5
      vertex -1.06066 -1.06066 -5
      vertex -1.06066 -1.06066 5
    endloop
  endfacet
  facet normal 0.976296 0.21644 0
    outer loop
      vertex 1.47721 0.260471 5
      vertex 1.44889 0.388228 -5
      vertex 1.44889 0.388228 5
    endloop
  endfacet
  facet normal 0.976296 0.21644 0
    outer loop
      vertex 1.44889 0.388228 -5
      vertex 1.47721 0.260471 5
      vertex 1.47721 0.260471 -5
    endloop
  endfacet
  facet normal 0 0 -1
    outer loop
      vertex 1.29904 -0.749999 5
      vertex 3.2 0 5
      vertex 1.6 -2.77128 5
    endloop
  endfacet
  facet normal 0 0 -1
    outer loop
      vertex 1.49429 0.130733 5
      vertex 3.2 0 5
      vertex 1.5 0 5
    endloop
  endfacet
  facet normal -0 0 -1
    outer loop
      vertex 3.2 0 5
      vertex 1.49429 -0.130733 5
      vertex 1.5 0 5
    endloop
  endfacet
  facet normal 0 0 -1
    outer loop
      vertex 3.2 0 5
      vertex 1.47721 -0.260471 5
      vertex 1.49429 -0.130733 5
    endloop
  endfacet
  facet normal 0 0 -1
    outer loop
      vertex 3.2 0 5
      vertex 1.44889 -0.388228 5
      vertex 1.47721 -0.260471 5
    endloop
  endfacet
  facet normal 0 0 -1
    outer loop
      vertex 3.2 0 5
      vertex 1.40954 -0.51303 5
      vertex 1.44889 -0.388228 5
    endloop
  endfacet
  facet normal 0 0 -1
    outer loop
      vertex 3.2 0 5
      vertex 1.35946 -0.633927 5
      vertex 1.40954 -0.51303 5
    endloop
  endfacet
  facet normal 0 0 -1
    outer loop
      vertex 3.2 0 5
      vertex 1.29904 -0.749999 5
      vertex 1.35946 -0.633927 5
    endloop
  endfacet
  facet normal 0 0 -1
    outer loop
      vertex 1.6 -2.77128 5
      vertex 1.22873 -0.860364 5
      vertex 1.29904 -0.749999 5
    endloop
  endfacet
  facet normal 0 0 -1
    outer loop
      vertex 1.6 -2.77128 5
      vertex 1.14907 -0.964181 5
      vertex 1.22873 -0.860364 5
    endloop
  endfacet
  facet normal 0 0 -1
    outer loop
      vertex 1.6 -2.77128 5
      vertex 1.06066 -1.06066 5
      vertex 1.14907 -0.964181 5
    endloop
  endfacet
  facet normal 0 0 -1
    outer loop
      vertex 1.6 -2.77128 5
      vertex 0.964181 -1.14907 5
      vertex 1.06066 -1.06066 5
    endloop
  endfacet
  facet normal 0 0 -1
    outer loop
      vertex 1.6 -2.77128 5
      vertex 0.860364 -1.22873 5
      vertex 0.964181 -1.14907 5
    endloop
  endfacet
  facet normal 0 0 -1
    outer loop
      vertex 1.6 -2.77128 5
      vertex 0.749999 -1.29904 5
      vertex 0.860364 -1.22873 5
    endloop
  endfacet
  facet normal 0 0 -1
    outer loop
      vertex 1.6 -2.77128 5
      vertex 0.633927 -1.35946 5
      vertex 0.749999 -1.29904 5
    endloop
  endfacet
  facet normal 0 0 -1
    outer loop
      vertex 1.6 -2.77128 5
      vertex 0.51303 -1.40954 5
      vertex 0.633927 -1.35946 5
    endloop
  endfacet
  facet normal 0 0 -1
    outer loop
      vertex 1.6 -2.77128 5
      vertex 0.388228 -1.44889 5
      vertex 0.51303 -1.40954 5
    endloop
  endfacet
  facet normal 0 0 -1
    outer loop
      vertex 1.6 -2.77128 5
      vertex 0.260471 -1.47721 5
      vertex 0.388228 -1.44889 5
    endloop
  endfacet
  facet normal 0 0 -1
    outer loop
      vertex 1.6 -2.77128 5
      vertex 0.130733 -1.49429 5
      vertex 0.260471 -1.47721 5
    endloop
  endfacet
  facet normal 0 0 -1
    outer loop
      vertex 1.6 -2.77128 5
      vertex 0 -1.5 5
      vertex 0.130733 -1.49429 5
    endloop
  endfacet
  facet normal 0 0 -1
    outer loop
      vertex -1.6 -2.77128 5
      vertex 0 -1.5 5
      vertex 1.6 -2.77128 5
    endloop
  endfacet
  facet normal -0 0 -1
    outer loop
      vertex 0 -1.5 5
      vertex -1.6 -2.77128 5
      vertex -0.130733 -1.49429 5
    endloop
  endfacet
  facet normal -0 0 -1
    outer loop
      vertex -0.130733 -1.49429 5
      vertex -1.6 -2.77128 5
      vertex -0.260471 -1.47721 5
    endloop
  endfacet
  facet normal -0 0 -1
    outer loop
      vertex -0.260471 -1.47721 5
      vertex -1.6 -2.77128 5
      vertex -0.388228 -1.44889 5
    endloop
  endfacet
  facet normal -0 0 -1
    outer loop
      vertex -0.388228 -1.44889 5
      vertex -1.6 -2.77128 5
      vertex -0.51303 -1.40954 5
    endloop
  endfacet
  facet normal -0 0 -1
    outer loop
      vertex -0.51303 -1.40954 5
      vertex -1.6 -2.77128 5
      vertex -0.633927 -1.35946 5
    endloop
  endfacet
  facet normal 0 0 -1
    outer loop
      vertex -1.47721 -0.260471 5
      vertex -3.2 0 5
      vertex -1.49429 -0.130733 5
    endloop
  endfacet
  facet normal 0 0 -1
    outer loop
      vertex -1.44889 -0.388228 5
      vertex -3.2 0 5
      vertex -1.47721 -0.260471 5
    endloop
  endfacet
  facet normal 0 0 -1
    outer loop
      vertex -1.40954 -0.51303 5
      vertex -3.2 0 5
      vertex -1.44889 -0.388228 5
    endloop
  endfacet
  facet normal 0 0 -1
    outer loop
      vertex -1.35946 -0.633927 5
      vertex -3.2 0 5
      vertex -1.40954 -0.51303 5
    endloop
  endfacet
  facet normal 0 0 -1
    outer loop
      vertex -1.29904 -0.75 5
      vertex -3.2 0 5
      vertex -1.35946 -0.633927 5
    endloop
  endfacet
  facet normal 0 0 -1
    outer loop
      vertex -3.2 0 5
      vertex -1.29904 -0.75 5
      vertex -1.6 -2.77128 5
    endloop
  endfacet
  facet normal -0 0 -1
    outer loop
      vertex -1.22873 -0.860364 5
      vertex -1.6 -2.77128 5
      vertex -1.29904 -0.75 5
    endloop
  endfacet
  facet normal -0 0 -1
    outer loop
      vertex -1.14907 -0.964181 5
      vertex -1.6 -2.77128 5
      vertex -1.22873 -0.860364 5
    endloop
  endfacet
  facet normal -0 0 -1
    outer loop
      vertex -1.06066 -1.06066 5
      vertex -1.6 -2.77128 5
      vertex -1.14907 -0.964181 5
    endloop
  endfacet
  facet normal -0 0 -1
    outer loop
      vertex -0.964181 -1.14907 5
      vertex -1.6 -2.77128 5
      vertex -1.06066 -1.06066 5
    endloop
  endfacet
  facet normal -0 0 -1
    outer loop
      vertex -0.860364 -1.22873 5
      vertex -1.6 -2.77128 5
      vertex -0.964181 -1.14907 5
    endloop
  endfacet
  facet normal -0 0 -1
    outer loop
      vertex -0.75 -1.29904 5
      vertex -1.6 -2.77128 5
      vertex -0.860364 -1.22873 5
    endloop
  endfacet
  facet normal -0 0 -1
    outer loop
      vertex -0.633927 -1.35946 5
      vertex -1.6 -2.77128 5
      vertex -0.75 -1.29904 5
    endloop
  endfacet
  facet normal 0 0 -1
    outer loop
      vertex 1.47721 0.260471 5
      vertex 3.2 0 5
      vertex 1.49429 0.130733 5
    endloop
  endfacet
  facet normal 0 0 -1
    outer loop
      vertex 1.44889 0.388228 5
      vertex 3.2 0 5
      vertex 1.47721 0.260471 5
    endloop
  endfacet
  facet normal 0 0 -1
    outer loop
      vertex 1.40954 0.51303 5
      vertex 3.2 0 5
      vertex 1.44889 0.388228 5
    endloop
  endfacet
  facet normal 0 0 -1
    outer loop
      vertex 1.35946 0.633927 5
      vertex 3.2 0 5
      vertex 1.40954 0.51303 5
    endloop
  endfacet
  facet normal 0 0 -1
    outer loop
      vertex 1.29904 0.749999 5
      vertex 3.2 0 5
      vertex 1.35946 0.633927 5
    endloop
  endfacet
  facet normal 0 0 -1
    outer loop
      vertex 3.2 0 5
      vertex 1.29904 0.749999 5
      vertex 1.6 2.77128 5
    endloop
  endfacet
  facet normal 0 0 -1
    outer loop
      vertex 1.22873 0.860364 5
      vertex 1.6 2.77128 5
      vertex 1.29904 0.749999 5
    endloop
  endfacet
  facet normal 0 0 -1
    outer loop
      vertex 1.14907 0.964181 5
      vertex 1.6 2.77128 5
      vertex 1.22873 0.860364 5
    endloop
  endfacet
  facet normal 0 0 -1
    outer loop
      vertex 1.06066 1.06066 5
      vertex 1.6 2.77128 5
      vertex 1.14907 0.964181 5
    endloop
  endfacet
  facet normal 0 0 -1
    outer loop
      vertex 0.964181 1.14907 5
      vertex 1.6 2.77128 5
      vertex 1.06066 1.06066 5
    endloop
  endfacet
  facet normal 0 0 -1
    outer loop
      vertex 0.860364 1.22873 5
      vertex 1.6 2.77128 5
      vertex 0.964181 1.14907 5
    endloop
  endfacet
  facet normal 0 0 -1
    outer loop
      vertex 0.75 1.29904 5
      vertex 1.6 2.77128 5
      vertex 0.860364 1.22873 5
    endloop
  endfacet
  facet normal 0 0 -1
    outer loop
      vertex 0.633927 1.35946 5
      vertex 1.6 2.77128 5
      vertex 0.75 1.29904 5
    endloop
  endfacet
  facet normal 0 0 -1
    outer loop
      vertex 0.51303 1.40954 5
      vertex 1.6 2.77128 5
      vertex 0.633927 1.35946 5
    endloop
  endfacet
  facet normal 0 0 -1
    outer loop
      vertex 0.388228 1.44889 5
      vertex 1.6 2.77128 5
      vertex 0.51303 1.40954 5
    endloop
  endfacet
  facet normal 0 0 -1
    outer loop
      vertex 0.260471 1.47721 5
      vertex 1.6 2.77128 5
      vertex 0.388228 1.44889 5
    endloop
  endfacet
  facet normal 0 0 -1
    outer loop
      vertex 0.130733 1.49429 5
      vertex 1.6 2.77128 5
      vertex 0.260471 1.47721 5
    endloop
  endfacet
  facet normal 0 0 -1
    outer loop
      vertex 0 1.5 5
      vertex 1.6 2.77128 5
      vertex 0.130733 1.49429 5
    endloop
  endfacet
  facet normal 0 0 -1
    outer loop
      vertex -1.6 2.77128 5
      vertex 0 1.5 5
      vertex -0.130733 1.49429 5
    endloop
  endfacet
  facet normal 0 0 -1
    outer loop
      vertex -1.6 2.77128 5
      vertex -0.130733 1.49429 5
      vertex -0.260471 1.47721 5
    endloop
  endfacet
  facet normal 0 0 -1
    outer loop
      vertex -1.6 2.77128 5
      vertex -0.260471 1.47721 5
      vertex -0.388228 1.44889 5
    endloop
  endfacet
  facet normal 0 0 -1
    outer loop
      vertex -1.6 2.77128 5
      vertex -0.388228 1.44889 5
      vertex -0.51303 1.40954 5
    endloop
  endfacet
  facet normal 0 0 -1
    outer loop
      vertex -1.6 2.77128 5
      vertex -0.51303 1.40954 5
      vertex -0.633927 1.35946 5
    endloop
  endfacet
  facet normal 0 0 -1
    outer loop
      vertex -1.6 2.77128 5
      vertex -0.633927 1.35946 5
      vertex -0.749999 1.29904 5
    endloop
  endfacet
  facet normal 0 0 -1
    outer loop
      vertex 0 1.5 5
      vertex -1.6 2.77128 5
      vertex 1.6 2.77128 5
    endloop
  endfacet
  facet normal 0 0 -1
    outer loop
      vertex -0.860364 1.22873 5
      vertex -1.6 2.77128 5
      vertex -0.749999 1.29904 5
    endloop
  endfacet
  facet normal 0 0 -1
    outer loop
      vertex -0.964181 1.14907 5
      vertex -1.6 2.77128 5
      vertex -0.860364 1.22873 5
    endloop
  endfacet
  facet normal 0 0 -1
    outer loop
      vertex -1.06066 1.06066 5
      vertex -1.6 2.77128 5
      vertex -0.964181 1.14907 5
    endloop
  endfacet
  facet normal 0 0 -1
    outer loop
      vertex -1.14907 0.964181 5
      vertex -1.6 2.77128 5
      vertex -1.06066 1.06066 5
    endloop
  endfacet
  facet normal 0 0 -1
    outer loop
      vertex -1.22873 0.860364 5
      vertex -1.6 2.77128 5
      vertex -1.14907 0.964181 5
    endloop
  endfacet
  facet normal 0 0 -1
    outer loop
      vertex -1.29904 0.75 5
      vertex -1.6 2.77128 5
      vertex -1.22873 0.860364 5
    endloop
  endfacet
  facet normal 0 0 -1
    outer loop
      vertex -3.2 0 5
      vertex -1.29904 0.75 5
      vertex -1.35946 0.633927 5
    endloop
  endfacet
  facet normal 0 0 -1
    outer loop
      vertex -3.2 0 5
      vertex -1.35946 0.633927 5
      vertex -1.40954 0.51303 5
    endloop
  endfacet
  facet normal 0 0 -1
    outer loop
      vertex -3.2 0 5
      vertex -1.40954 0.51303 5
      vertex -1.44889 0.388228 5
    endloop
  endfacet
  facet normal 0 0 -1
    outer loop
      vertex -3.2 0 5
      vertex -1.44889 0.388228 5
      vertex -1.47721 0.260471 5
    endloop
  endfacet
  facet normal 0 0 -1
    outer loop
      vertex -3.2 0 5
      vertex -1.47721 0.260471 5
      vertex -1.49429 0.130733 5
    endloop
  endfacet
  facet normal 0 0 -1
    outer loop
      vertex -3.2 0 5
      vertex -1.49429 0.130733 5
      vertex -1.5 0 5
    endloop
  endfacet
  facet normal 0 0 -1
    outer loop
      vertex -1.49429 -0.130733 5
      vertex -3.2 0 5
      vertex -1.5 0 5
    endloop
  endfacet
  facet normal -0 0 -1
    outer loop
      vertex -1.29904 0.75 5
      vertex -3.2 0 5
      vertex -1.6 2.77128 5
    endloop
  endfacet
  facet normal -0.793354 0.60876 0
    outer loop
      vertex -1.22873 0.860364 -5
      vertex -1.14907 0.964181 5
      vertex -1.14907 0.964181 -5
    endloop
  endfacet
  facet normal -0.793354 0.60876 0
    outer loop
      vertex -1.14907 0.964181 5
      vertex -1.22873 0.860364 -5
      vertex -1.22873 0.860364 5
    endloop
  endfacet
  facet normal -0.60876 0.793354 0
    outer loop
      vertex -0.860364 1.22873 -5
      vertex -0.964181 1.14907 5
      vertex -0.860364 1.22873 5
    endloop
  endfacet
  facet normal -0.60876 0.793354 0
    outer loop
      vertex -0.964181 1.14907 5
      vertex -0.860364 1.22873 -5
      vertex -0.964181 1.14907 -5
    endloop
  endfacet
  facet normal -0.537302 0.84339 0
    outer loop
      vertex -0.749999 1.29904 -5
      vertex -0.860364 1.22873 5
      vertex -0.749999 1.29904 5
    endloop
  endfacet
  facet normal -0.537302 0.84339 0
    outer loop
      vertex -0.860364 1.22873 5
      vertex -0.749999 1.29904 -5
      vertex -0.860364 1.22873 -5
    endloop
  endfacet
  facet normal 0.0436251 -0.999048 0
    outer loop
      vertex 0 -1.5 -5
      vertex 0.130733 -1.49429 5
      vertex 0 -1.5 5
    endloop
  endfacet
  facet normal 0.0436251 -0.999048 0
    outer loop
      vertex 0.130733 -1.49429 5
      vertex 0 -1.5 -5
      vertex 0.130733 -1.49429 -5
    endloop
  endfacet
  facet normal 0.991445 -0.130526 0
    outer loop
      vertex 1.47721 -0.260471 5
      vertex 1.49429 -0.130733 -5
      vertex 1.49429 -0.130733 5
    endloop
  endfacet
  facet normal 0.991445 -0.130526 0
    outer loop
      vertex 1.49429 -0.130733 -5
      vertex 1.47721 -0.260471 5
      vertex 1.47721 -0.260471 -5
    endloop
  endfacet
  facet normal 0.953717 -0.300704 0
    outer loop
      vertex 1.40954 -0.51303 5
      vertex 1.44889 -0.388228 -5
      vertex 1.44889 -0.388228 5
    endloop
  endfacet
  facet normal 0.953717 -0.300704 0
    outer loop
      vertex 1.44889 -0.388228 -5
      vertex 1.40954 -0.51303 5
      vertex 1.40954 -0.51303 -5
    endloop
  endfacet
  facet normal 0.130526 -0.991445 0
    outer loop
      vertex 0.130733 -1.49429 -5
      vertex 0.260471 -1.47721 5
      vertex 0.130733 -1.49429 5
    endloop
  endfacet
  facet normal 0.130526 -0.991445 0
    outer loop
      vertex 0.260471 -1.47721 5
      vertex 0.130733 -1.49429 -5
      vertex 0.260471 -1.47721 -5
    endloop
  endfacet
  facet normal 0.382684 -0.923879 0
    outer loop
      vertex 0.51303 -1.40954 -5
      vertex 0.633927 -1.35946 5
      vertex 0.51303 -1.40954 5
    endloop
  endfacet
  facet normal 0.382684 -0.923879 0
    outer loop
      vertex 0.633927 -1.35946 5
      vertex 0.51303 -1.40954 -5
      vertex 0.633927 -1.35946 -5
    endloop
  endfacet
  facet normal 0.737276 -0.675592 0
    outer loop
      vertex 1.06066 -1.06066 5
      vertex 1.14907 -0.964181 -5
      vertex 1.14907 -0.964181 5
    endloop
  endfacet
  facet normal 0.737276 -0.675592 0
    outer loop
      vertex 1.14907 -0.964181 -5
      vertex 1.06066 -1.06066 5
      vertex 1.06066 -1.06066 -5
    endloop
  endfacet
  facet normal 0.537302 -0.84339 0
    outer loop
      vertex 0.749999 -1.29904 -5
      vertex 0.860364 -1.22873 5
      vertex 0.749999 -1.29904 5
    endloop
  endfacet
  facet normal 0.537302 -0.84339 0
    outer loop
      vertex 0.860364 -1.22873 5
      vertex 0.749999 -1.29904 -5
      vertex 0.860364 -1.22873 -5
    endloop
  endfacet
  facet normal 0.923879 -0.382684 0
    outer loop
      vertex 1.35946 -0.633927 5
      vertex 1.40954 -0.51303 -5
      vertex 1.40954 -0.51303 5
    endloop
  endfacet
  facet normal 0.923879 -0.382684 0
    outer loop
      vertex 1.40954 -0.51303 -5
      vertex 1.35946 -0.633927 5
      vertex 1.35946 -0.633927 -5
    endloop
  endfacet
  facet normal 0.84339 -0.537302 0
    outer loop
      vertex 1.22873 -0.860364 5
      vertex 1.29904 -0.749999 -5
      vertex 1.29904 -0.749999 5
    endloop
  endfacet
  facet normal 0.84339 -0.537302 0
    outer loop
      vertex 1.29904 -0.749999 -5
      vertex 1.22873 -0.860364 5
      vertex 1.22873 -0.860364 -5
    endloop
  endfacet
  facet normal -0.21644 -0.976296 0
    outer loop
      vertex -0.388228 -1.44889 -5
      vertex -0.260471 -1.47721 5
      vertex -0.388228 -1.44889 5
    endloop
  endfacet
  facet normal -0.21644 -0.976296 -0
    outer loop
      vertex -0.260471 -1.47721 5
      vertex -0.388228 -1.44889 -5
      vertex -0.260471 -1.47721 -5
    endloop
  endfacet
  facet normal -0.382684 -0.923879 0
    outer loop
      vertex -0.633927 -1.35946 -5
      vertex -0.51303 -1.40954 5
      vertex -0.633927 -1.35946 5
    endloop
  endfacet
  facet normal -0.382684 -0.923879 -0
    outer loop
      vertex -0.51303 -1.40954 5
      vertex -0.633927 -1.35946 -5
      vertex -0.51303 -1.40954 -5
    endloop
  endfacet
  facet normal -0.60876 -0.793354 0
    outer loop
      vertex -0.964181 -1.14907 -5
      vertex -0.860364 -1.22873 5
      vertex -0.964181 -1.14907 5
    endloop
  endfacet
  facet normal -0.60876 -0.793354 -0
    outer loop
      vertex -0.860364 -1.22873 5
      vertex -0.964181 -1.14907 -5
      vertex -0.860364 -1.22873 -5
    endloop
  endfacet
  facet normal -0.953717 -0.300704 0
    outer loop
      vertex -1.40954 -0.51303 -5
      vertex -1.44889 -0.388228 5
      vertex -1.44889 -0.388228 -5
    endloop
  endfacet
  facet normal -0.953717 -0.300704 0
    outer loop
      vertex -1.44889 -0.388228 5
      vertex -1.40954 -0.51303 -5
      vertex -1.40954 -0.51303 5
    endloop
  endfacet
  facet normal -0.991445 -0.130526 0
    outer loop
      vertex -1.47721 -0.260471 -5
      vertex -1.49429 -0.130733 5
      vertex -1.49429 -0.130733 -5
    endloop
  endfacet
  facet normal -0.991445 -0.130526 0
    outer loop
      vertex -1.49429 -0.130733 5
      vertex -1.47721 -0.260471 -5
      vertex -1.47721 -0.260471 5
    endloop
  endfacet
  facet normal -0.887013 -0.461744 0
    outer loop
      vertex -1.29904 -0.75 -5
      vertex -1.35946 -0.633927 5
      vertex -1.35946 -0.633927 -5
    endloop
  endfacet
  facet normal -0.887013 -0.461744 0
    outer loop
      vertex -1.35946 -0.633927 5
      vertex -1.29904 -0.75 -5
      vertex -1.29904 -0.75 5
    endloop
  endfacet
  facet normal -0.843388 -0.537305 0
    outer loop
      vertex -1.22873 -0.860364 -5
      vertex -1.29904 -0.75 5
      vertex -1.29904 -0.75 -5
    endloop
  endfacet
  facet normal -0.843388 -0.537305 0
    outer loop
      vertex -1.29904 -0.75 5
      vertex -1.22873 -0.860364 -5
      vertex -1.22873 -0.860364 5
    endloop
  endfacet
  facet normal 0.976296 -0.21644 0
    outer loop
      vertex 1.44889 -0.388228 5
      vertex 1.47721 -0.260471 -5
      vertex 1.47721 -0.260471 5
    endloop
  endfacet
  facet normal 0.976296 -0.21644 0
    outer loop
      vertex 1.47721 -0.260471 -5
      vertex 1.44889 -0.388228 5
      vertex 1.44889 -0.388228 -5
    endloop
  endfacet
  facet normal 0.60876 -0.793354 0
    outer loop
      vertex 0.860364 -1.22873 -5
      vertex 0.964181 -1.14907 5
      vertex 0.860364 -1.22873 5
    endloop
  endfacet
  facet normal 0.60876 -0.793354 0
    outer loop
      vertex 0.964181 -1.14907 5
      vertex 0.860364 -1.22873 -5
      vertex 0.964181 -1.14907 -5
    endloop
  endfacet
  facet normal -0.793354 -0.60876 0
    outer loop
      vertex -1.14907 -0.964181 -5
      vertex -1.22873 -0.860364 5
      vertex -1.22873 -0.860364 -5
    endloop
  endfacet
  facet normal -0.793354 -0.60876 0
    outer loop
      vertex -1.22873 -0.860364 5
      vertex -1.14907 -0.964181 -5
      vertex -1.14907 -0.964181 5
    endloop
  endfacet
  facet normal 0.866025 0.5 0
    outer loop
      vertex 3.2 0 7
      vertex 1.6 2.77128 5
      vertex 1.6 2.77128 7
    endloop
  endfacet
  facet normal 0.866025 0.5 0
    outer loop
      vertex 1.6 2.77128 5
      vertex 3.2 0 7
      vertex 3.2 0 5
    endloop
  endfacet
  facet normal -0.866025 0.5 0
    outer loop
      vertex -3.2 0 5
      vertex -1.6 2.77128 7
      vertex -1.6 2.77128 5
    endloop
  endfacet
  facet normal -0.866025 0.5 0
    outer loop
      vertex -1.6 2.77128 7
      vertex -3.2 0 5
      vertex -3.2 0 7
    endloop
  endfacet
  facet normal 0 1 -0
    outer loop
      vertex 1.6 2.77128 5
      vertex -1.6 2.77128 7
      vertex 1.6 2.77128 7
    endloop
  endfacet
  facet normal 0 1 0
    outer loop
      vertex -1.6 2.77128 7
      vertex 1.6 2.77128 5
      vertex -1.6 2.77128 5
    endloop
  endfacet
  facet normal -0.866025 -0.5 0
    outer loop
      vertex -1.6 -2.77128 5
      vertex -3.2 0 7
      vertex -3.2 0 5
    endloop
  endfacet
  facet normal -0.866025 -0.5 0
    outer loop
      vertex -3.2 0 7
      vertex -1.6 -2.77128 5
      vertex -1.6 -2.77128 7
    endloop
  endfacet
  facet normal 0 0 1
    outer loop
      vertex 1.6 2.77128 7
      vertex 1.6 -2.77128 7
      vertex 3.2 0 7
    endloop
  endfacet
  facet normal -0 0 1
    outer loop
      vertex -1.6 2.77128 7
      vertex 1.6 -2.77128 7
      vertex 1.6 2.77128 7
    endloop
  endfacet
  facet normal 0 0 1
    outer loop
      vertex -1.6 2.77128 7
      vertex -1.6 -2.77128 7
      vertex 1.6 -2.77128 7
    endloop
  endfacet
  facet normal 0 -0 1
    outer loop
      vertex -1.6 -2.77128 7
      vertex -1.6 2.77128 7
      vertex -3.2 0 7
    endloop
  endfacet
  facet normal 0.866025 -0.5 0
    outer loop
      vertex 1.6 -2.77128 7
      vertex 3.2 0 5
      vertex 3.2 0 7
    endloop
  endfacet
  facet normal 0.866025 -0.5 0
    outer loop
      vertex 3.2 0 5
      vertex 1.6 -2.77128 7
      vertex 1.6 -2.77128 5
    endloop
  endfacet
  facet normal 0 -1 0
    outer loop
      vertex -1.6 -2.77128 5
      vertex 1.6 -2.77128 7
      vertex -1.6 -2.77128 7
    endloop
  endfacet
  facet normal 0 -1 -0
    outer loop
      vertex 1.6 -2.77128 7
      vertex -1.6 -2.77128 5
      vertex 1.6 -2.77128 5
    endloop
  endfacet
endsolid OpenSCAD_Model
